<?xml version="1.0" encoding="UTF-8" standalone="no"?>
<!-- Created with Inkscape (http://www.inkscape.org/) -->

<svg
   xmlns:dc="http://purl.org/dc/elements/1.1/"
   xmlns:cc="http://creativecommons.org/ns#"
   xmlns:rdf="http://www.w3.org/1999/02/22-rdf-syntax-ns#"
   xmlns:svg="http://www.w3.org/2000/svg"
   xmlns="http://www.w3.org/2000/svg"
   xmlns:sodipodi="http://sodipodi.sourceforge.net/DTD/sodipodi-0.dtd"
   xmlns:inkscape="http://www.inkscape.org/namespaces/inkscape"
   version="1.1"
   id="svg2"
   xml:space="preserve"
   width="1122.52"
   height="1587.4"
   viewBox="0 0 1122.52 1587.4"
   sodipodi:docname="wordclock_de.svg"
   inkscape:version="0.92.4 (5da689c313, 2019-01-14)"><metadata
     id="metadata8"><rdf:RDF><cc:Work
         rdf:about=""><dc:format>image/svg+xml</dc:format><dc:type
           rdf:resource="http://purl.org/dc/dcmitype/StillImage" /><dc:title></dc:title></cc:Work></rdf:RDF></metadata><defs
     id="defs6"><clipPath
       clipPathUnits="userSpaceOnUse"
       id="clipPath44"><path
         d="M 0,1190.55 H 841.89 V 0 H 0 Z"
         id="path42"
         inkscape:connector-curvature="0" /></clipPath></defs><sodipodi:namedview
     pagecolor="#ffffff"
     bordercolor="#666666"
     borderopacity="1"
     objecttolerance="10"
     gridtolerance="10"
     guidetolerance="10"
     inkscape:pageopacity="0"
     inkscape:pageshadow="2"
     inkscape:window-width="2560"
     inkscape:window-height="1377"
     id="namedview4"
     showgrid="false"
     inkscape:zoom="1.6820179"
     inkscape:cx="452.70279"
     inkscape:cy="752.67076"
     inkscape:window-x="1912"
     inkscape:window-y="-8"
     inkscape:window-maximized="1"
     inkscape:current-layer="g40" /><g
     id="g10"
     inkscape:groupmode="layer"
     inkscape:label="de"
     transform="matrix(1.3333333,0,0,-1.3333333,0,1587.4)"><path
       d="M 747.485,269.517 H 95.515 v 651.969 h 651.97 z"
       style="fill:none;stroke:#ff2400;stroke-width:0.75000002;stroke-linecap:round;stroke-linejoin:round;stroke-miterlimit:10;stroke-dasharray:none;stroke-opacity:1"
       id="path12"
       inkscape:connector-curvature="0" /><g
       id="g14"
       transform="translate(171.9673,434.6484)"
       style="stroke:#ff2400;stroke-opacity:1;fill:#000000;fill-opacity:1"><path
         d="m 0,0 -3.998,26.901 h 3.517 L 2.792,4.555 H 2.854 L 6.729,21.219 H 10.71 L 14.526,4.803 h 0.049 l 3.455,22.098 h 3.145 L 16.751,0 H 12.266 L 8.559,15.79 H 8.516 L 4.778,0 Z"
         style="fill:#000000;stroke:#ff2400;stroke-width:0.028;stroke-linecap:round;stroke-linejoin:round;stroke-miterlimit:10;stroke-dasharray:none;stroke-opacity:1;fill-opacity:1"
         id="path16"
         inkscape:connector-curvature="0" /></g><g
       id="g18"
       transform="translate(170.9829,482.835)"
       style="stroke:#ff2400;stroke-opacity:1;fill:#000000;fill-opacity:1"><path
         d="M 0,0 V 26.906 H 18.176 V 23.799 H 4.133 v -8.154 h 11.91 V 12.537 H 4.133 V 3.109 H 19.146 V 0 H 0"
         style="fill:#000000;stroke:#ff2400;stroke-width:0.028;stroke-linecap:round;stroke-linejoin:round;stroke-miterlimit:10;stroke-dasharray:none;stroke-opacity:1;fill-opacity:1"
         id="path20"
         inkscape:connector-curvature="0" /></g><g
       id="g22"
       transform="translate(169.7393,531.0225)"
       style="stroke:#ff2400;stroke-opacity:1;fill:#000000;fill-opacity:1"><path
         d="M 0,0 V 26.909 H 4.132 V 13.715 l 11.252,13.194 h 4.171 L 8.704,14.215 21.633,0 H 16.689 L 4.132,13.715 V 0 H 0"
         style="fill:#000000;stroke:#ff2400;stroke-width:0.028;stroke-linecap:round;stroke-linejoin:round;stroke-miterlimit:10;stroke-dasharray:none;stroke-opacity:1;fill-opacity:1"
         id="path24"
         inkscape:connector-curvature="0" /></g><g
       id="g26"
       transform="translate(169.6968,579.2158)"
       style="stroke:#ff2400;stroke-opacity:1;fill:#000000;fill-opacity:1"><path
         d="M 0,0 V 3.102 L 16.879,23.791 H 1.031 v 3.11 h 20.524 v -3.11 L 4.693,3.102 H 21.718 V 0 Z"
         style="fill:#000000;stroke:#ff2400;stroke-width:0.028;stroke-linecap:round;stroke-linejoin:round;stroke-miterlimit:10;stroke-dasharray:none;stroke-opacity:1;fill-opacity:1"
         id="path28"
         inkscape:connector-curvature="0" /></g><g
       id="g30"
       transform="translate(170.7251,627.4048)"
       style="stroke:#ff2400;stroke-opacity:1;fill:#000000;fill-opacity:1"><path
         d="M 0,0 V 26.901 H 4.126 V 15.144 h 11.387 v 11.757 h 4.15 V 0 h -4.15 V 12.039 H 4.126 L 4.126,0 H 0"
         style="fill:#000000;stroke:#ff2400;stroke-width:0.028;stroke-linecap:round;stroke-linejoin:round;stroke-miterlimit:10;stroke-dasharray:none;stroke-opacity:1;fill-opacity:1"
         id="path32"
         inkscape:connector-curvature="0" /></g><g
       id="g34"
       transform="translate(178.4771,675.5952)"
       style="stroke:#ff2400;stroke-opacity:1;fill:#000000;fill-opacity:1"><path
         d="m 0,0 v 23.793 h -10.336 v 3.105 H 14.49 V 23.793 H 4.146 L 4.146,0 H 0"
         style="fill:#000000;stroke:#ff2400;stroke-width:0.028;stroke-linecap:round;stroke-linejoin:round;stroke-miterlimit:10;stroke-dasharray:none;stroke-opacity:1;fill-opacity:1"
         id="path36"
         inkscape:connector-curvature="0" /></g><g
       id="g38"
       style="stroke:#ff2400;stroke-opacity:1"><g
         id="g40"
         clip-path="url(#clipPath44)"
         style="stroke:#ff2400;stroke-opacity:1"><g
           id="g46"
           transform="translate(173.9268,730.4194)"
           style="stroke:#ff2400;stroke-opacity:1;fill:#000000;fill-opacity:1"><path
             d="m 0,0 h -4.145 l 0.019,20.266 H 3.98 c 8.95,0 13.422,-4.31 13.422,-12.917 0,0 0,-3.98 -0.974,-7.207 C 14.489,-2.313 14.489,-2.313 13.271,-3.867 11.771,-4.976 9.989,-5.641 9.989,-5.641 8.211,-6.309 5.84,-6.638 2.877,-6.638 h -7.003 v 3.11 h 6.198 c 0,0 3.944,-0.003 6.748,0.776 1.676,1.57 1.676,1.57 3.346,3.133 0.837,2.632 0.837,6.316 0.837,6.316 0,3.749 -0.757,6.426 -2.269,8.042 0,0 -1.511,1.613 -4.022,2.421 H 3.183 0 Z"
             style="fill:#000000;stroke:#ff2400;stroke-width:0.028;stroke-linecap:round;stroke-linejoin:round;stroke-miterlimit:10;stroke-dasharray:none;stroke-opacity:1;fill-opacity:1"
             id="path48"
             inkscape:connector-curvature="0" /></g><g
           id="g50"
           transform="translate(222.1104,537.6602)"
           style="stroke:#ff2400;stroke-opacity:1;fill:#000000;fill-opacity:1"><path
             d="m 0,0 h -4.139 l 0.012,20.271 h 8.113 c 8.948,0 13.423,-4.313 13.423,-12.92 0,0 0,-3.982 -0.974,-7.209 -1.94,-2.45 -1.94,-2.45 -3.16,-4.009 -1.5,-1.105 -3.279,-1.771 -3.279,-1.771 -1.778,-0.671 -4.156,-1 -7.119,-1 h -7.004 v 3.111 h 6.206 c 0,0 3.943,0 6.748,0.779 1.675,1.567 1.675,1.567 3.346,3.134 0.835,2.628 0.835,6.314 0.835,6.314 0,3.748 -0.757,6.425 -2.267,8.04 0,0 -1.513,1.608 -4.023,2.421 H 3.188 0 Z"
             style="fill:#000000;stroke:#ff2400;stroke-width:0.028;stroke-linecap:round;stroke-linejoin:round;stroke-miterlimit:10;stroke-dasharray:none;stroke-opacity:1;fill-opacity:1"
             id="path52"
             inkscape:connector-curvature="0" /></g><g
           id="g54"
           transform="translate(169.6968,771.9707)"
           style="stroke:#ff2400;stroke-opacity:1;fill:#000000;fill-opacity:1"><path
             d="M 0,0 V 3.106 L 16.879,23.798 H 1.031 v 3.105 H 21.555 V 23.798 L 4.693,3.106 H 21.718 V 0 Z"
             style="fill:#000000;stroke:#ff2400;stroke-width:0.028;stroke-linecap:round;stroke-linejoin:round;stroke-miterlimit:10;stroke-dasharray:none;stroke-opacity:1;fill-opacity:1"
             id="path56"
             inkscape:connector-curvature="0" /></g><g
           id="g58"
           transform="translate(170.9829,820.1597)"
           style="stroke:#ff2400;stroke-opacity:1;fill:#000000;fill-opacity:1"><path
             d="M 0,0 V 26.903 H 18.176 V 23.798 H 4.133 v -8.153 h 11.91 V 12.539 H 4.133 V 3.108 H 19.146 V 0 H 0"
             style="fill:#000000;stroke:#ff2400;stroke-width:0.028;stroke-linecap:round;stroke-linejoin:round;stroke-miterlimit:10;stroke-dasharray:none;stroke-opacity:1;fill-opacity:1"
             id="path60"
             inkscape:connector-curvature="0" /></g><g
           id="g62"
           transform="translate(236.4961,412.7324)"
           style="stroke:#ff2400;stroke-opacity:1;fill:#000000;fill-opacity:1"><path
             d="m 0,0 v -3.586 l -2.213,0.771 -2.092,0.554 -1.955,0.329 -1.836,0.11 -2.45,-0.239 -1.756,-0.708 -1.047,-1.176 -0.347,-1.651 0.261,-1.385 0.792,-1.078 1.489,-0.947 2.388,-0.974 2.64,-0.92 2.512,-0.866 1.37,-0.553 1.19,-0.647 1.005,-0.735 0.823,-0.825 0.64,-0.914 0.463,-1.006 0.269,-1.092 0.097,-1.181 -0.189,-1.774 -0.56,-1.587 -0.933,-1.399 -1.306,-1.208 -1.62,-0.981 -1.877,-0.696 -2.122,-0.42 -2.383,-0.14 -1.864,0.098 -2.123,0.272 -2.377,0.472 -2.627,0.651 v 4.091 l 2.627,-1.088 2.395,-0.772 2.165,-0.463 1.925,-0.153 1.457,0.072 1.3,0.227 1.144,0.377 0.988,0.522 0.799,0.661 0.573,0.755 0.341,0.859 0.11,0.97 -0.269,1.394 -0.81,1.063 -1.653,0.982 -2.802,1.158 -2.767,1 -1.903,0.775 -1.597,0.778 -1.273,0.792 -0.963,0.805 -0.703,0.873 -0.498,1.006 -0.307,1.139 -0.096,1.272 0.158,1.716 0.457,1.505 0.775,1.304 1.073,1.103 1.359,0.87 1.609,0.625 1.858,0.369 2.11,0.124 L -6.291,1.198 -4.305,0.962 -2.207,0.56 0,0"
             style="fill:#000000;stroke:#ff2400;stroke-width:0.028;stroke-linecap:round;stroke-linejoin:round;stroke-miterlimit:10;stroke-dasharray:none;stroke-opacity:1;fill-opacity:1"
             id="path64"
             inkscape:connector-curvature="0" /></g><g
           id="g66"
           transform="translate(219.4355,482.835)"
           style="stroke:#ff2400;stroke-opacity:1;fill:#000000;fill-opacity:1"><path
             d="M 0,0 V 26.906 H 4.126 V 3.109 H 18.62 V 0 H 0"
             style="fill:#000000;stroke:#ff2400;stroke-width:0.028;stroke-linecap:round;stroke-linejoin:round;stroke-miterlimit:10;stroke-dasharray:none;stroke-opacity:1;fill-opacity:1"
             id="path68"
             inkscape:connector-curvature="0" /></g><g
           id="g70"
           transform="translate(220.1602,579.2158)"
           style="stroke:#ff2400;stroke-opacity:1;fill:#000000;fill-opacity:1"><path
             d="m 0,0 -3.999,26.901 h 3.518 L 2.792,4.545 h 0.06 L 6.729,21.216 H 10.71 L 14.525,4.797 h 0.048 l 3.456,22.104 h 3.147 L 16.75,0 H 12.262 L 8.558,15.788 H 8.51 L 4.778,0 Z"
             style="fill:#000000;stroke:#ff2400;stroke-width:0.028;stroke-linecap:round;stroke-linejoin:round;stroke-miterlimit:10;stroke-dasharray:none;stroke-opacity:1;fill-opacity:1"
             id="path72"
             inkscape:connector-curvature="0" /></g><g
           id="g74"
           transform="translate(239.4326,701.9263)"
           style="stroke:#ff2400;stroke-opacity:1;fill:#000000;fill-opacity:1"><path
             d="m 0,0 v -3.796 l -2.034,0.834 -1.977,0.598 -1.906,0.357 -1.835,0.118 -2,-0.188 -1.804,-0.576 -1.627,-0.957 -1.446,-1.338 -1.17,-1.636 -0.841,-1.845 -0.506,-2.05 -0.169,-2.265 0.188,-2.274 0.573,-2.063 0.95,-1.844 1.331,-1.635 1.626,-1.331 1.835,-0.954 2.048,-0.573 2.25,-0.188 2.723,0.251 v 7.105 h -5.046 v 3.106 h 9.18 V -25.64 l -2.086,-0.588 -2.023,-0.42 -1.969,-0.253 -1.907,-0.082 -1.529,0.06 -1.453,0.181 -1.383,0.303 -1.305,0.425 -1.231,0.545 -1.156,0.667 -1.092,0.787 -1.019,0.908 -0.915,1.006 -0.792,1.08 -0.67,1.151 -0.55,1.224 -0.426,1.297 -0.304,1.368 -0.189,1.445 -0.061,1.515 0.061,1.551 0.189,1.476 0.304,1.4 0.426,1.323 0.55,1.25 0.67,1.176 0.788,1.097 0.913,1.025 1.012,0.923 1.091,0.799 1.158,0.68 1.238,0.555 1.31,0.428 1.39,0.312 1.457,0.182 1.536,0.064 1.81,-0.079 1.876,-0.229 1.94,-0.377 L 0,0"
             style="fill:#000000;stroke:#ff2400;stroke-width:0.028;stroke-linecap:round;stroke-linejoin:round;stroke-miterlimit:10;stroke-dasharray:none;stroke-opacity:1;fill-opacity:1"
             id="path76"
             inkscape:connector-curvature="0" /></g><g
           id="g78"
           transform="translate(222.2021,747.5796)"
           style="stroke:#ff2400;stroke-opacity:1;fill:#000000;fill-opacity:1"><path
             d="M 0,0 V -5.909 H -4.128 L -4.14,3.105 H 3.395 L 5.56,3.057 7.369,2.912 8.819,2.669 9.911,2.331 11.61,1.367 l 1.22,-1.273 0.733,-1.581 0.243,-1.89 -0.078,-1.348 -0.257,-1.228 -0.42,-1.115 -0.593,-0.996 -0.785,-0.921 -1.019,-0.887 -1.243,-0.857 -1.469,-0.822 9.279,-12.247 h -5.005 l -8.492,11.195 h -3.73 V -23.798 H -4.14 v 14.353 l 6.316,-0.032 1.579,0.088 1.409,0.277 1.23,0.459 1.061,0.642 0.853,0.803 0.61,0.923 0.364,1.054 0.124,1.186 -0.087,1.069 -0.28,0.887 -0.45,0.707 L 7.942,-0.861 7.053,-0.485 5.858,-0.217 4.347,-0.056 2.529,0 H 0"
             style="fill:#000000;stroke:#ff2400;stroke-width:0.028;stroke-linecap:round;stroke-linejoin:round;stroke-miterlimit:10;stroke-dasharray:none;stroke-opacity:1;fill-opacity:1"
             id="path80"
             inkscape:connector-curvature="0" /></g><g
           id="g82"
           transform="translate(655.9033,410.2559)"
           style="stroke:#ff2400;stroke-opacity:1;fill:#000000;fill-opacity:1"><path
             d="M 0,0 V -5.913 H -4.123 L -4.141,3.106 H 3.387 L 5.559,3.057 7.367,2.913 8.82,2.668 9.91,2.332 l 1.707,-0.971 1.219,-1.265 0.732,-1.582 0.245,-1.893 -0.086,-1.348 -0.258,-1.226 -0.416,-1.112 -0.596,-1.001 -0.791,-0.921 -1.01,-0.888 -1.246,-0.853 -1.469,-0.825 9.284,-12.245 h -5.012 l -8.496,11.196 h -3.723 v -11.196 h -4.135 v 14.355 l 6.317,-0.033 1.576,0.086 1.41,0.276 1.233,0.463 1.058,0.641 0.854,0.797 0.609,0.926 0.371,1.055 L 9.41,-4.044 9.318,-2.978 9.045,-2.085 8.58,-1.38 7.941,-0.861 7.053,-0.483 5.852,-0.215 4.344,-0.057 2.529,0 H 0"
             style="fill:#000000;stroke:#ff2400;stroke-width:0.028;stroke-linecap:round;stroke-linejoin:round;stroke-miterlimit:10;stroke-dasharray:none;stroke-opacity:1;fill-opacity:1"
             id="path84"
             inkscape:connector-curvature="0" /></g><g
           id="g86"
           transform="translate(607.7129,458.4482)"
           style="stroke:#ff2400;stroke-opacity:1;fill:#000000;fill-opacity:1"><path
             d="M 0,0 V -5.916 H -4.126 L -4.14,3.102 h 7.529 l 2.17,-0.046 1.81,-0.145 1.453,-0.242 1.09,-0.338 1.709,-0.97 1.219,-1.271 0.728,-1.577 0.246,-1.892 -0.085,-1.347 -0.258,-1.23 -0.418,-1.109 -0.592,-1.002 -0.793,-0.919 -1.01,-0.889 -1.246,-0.854 -1.467,-0.822 9.282,-12.249 H 12.215 L 3.717,-12.607 H -0.006 V -23.8 H -4.14 v 14.356 l 6.318,-0.034 1.576,0.088 1.408,0.276 1.236,0.462 1.057,0.642 0.854,0.796 0.617,0.927 0.363,1.056 0.123,1.188 L 9.32,-2.977 9.047,-2.085 8.59,-1.386 7.945,-0.861 7.055,-0.483 5.859,-0.216 4.348,-0.056 2.535,0 H 0"
             style="fill:#000000;stroke:#ff2400;stroke-width:0.028;stroke-linecap:round;stroke-linejoin:round;stroke-miterlimit:10;stroke-dasharray:none;stroke-opacity:1;fill-opacity:1"
             id="path88"
             inkscape:connector-curvature="0" /></g><g
           id="g90"
           transform="translate(655.9033,506.6338)"
           style="stroke:#ff2400;stroke-opacity:1;fill:#000000;fill-opacity:1"><path
             d="M 0,0 V -5.915 H -4.123 L -4.141,3.107 H 3.387 L 5.559,3.058 7.367,2.912 8.82,2.669 9.91,2.333 l 1.707,-0.972 1.219,-1.266 0.732,-1.584 0.245,-1.891 -0.086,-1.346 -0.258,-1.227 -0.416,-1.113 -0.596,-0.999 -0.791,-0.921 -1.01,-0.893 -1.246,-0.85 -1.469,-0.823 9.284,-12.247 h -5.012 l -8.496,11.198 h -3.723 v -11.198 h -4.135 v 14.354 l 6.317,-0.03 1.576,0.085 1.41,0.277 1.233,0.461 1.058,0.641 0.854,0.798 0.609,0.925 0.371,1.056 L 9.41,-4.043 9.318,-2.976 9.045,-2.087 8.58,-1.38 7.941,-0.862 7.053,-0.482 5.852,-0.216 4.344,-0.057 2.529,0 H 0"
             style="fill:#000000;stroke:#ff2400;stroke-width:0.028;stroke-linecap:round;stroke-linejoin:round;stroke-miterlimit:10;stroke-dasharray:none;stroke-opacity:1;fill-opacity:1"
             id="path92"
             inkscape:connector-curvature="0" /></g><g
           id="g94"
           transform="translate(270.3862,554.8213)"
           style="stroke:#ff2400;stroke-opacity:1;fill:#000000;fill-opacity:1"><path
             d="M 0,0 V -5.91 H -4.126 L -4.139,3.11 H 3.39 L 5.554,3.057 7.369,2.912 8.821,2.667 9.905,2.331 l 1.706,-0.963 1.22,-1.275 0.731,-1.582 0.245,-1.89 -0.086,-1.349 -0.249,-1.223 -0.42,-1.115 -0.599,-0.997 -0.786,-0.925 -1.018,-0.883 -1.237,-0.857 -1.471,-0.826 9.279,-12.245 h -5.006 l -8.495,11.198 h -3.725 v -11.198 h -4.133 v 14.357 l 6.315,-0.033 1.58,0.086 1.406,0.276 1.232,0.461 1.06,0.639 0.855,0.802 0.609,0.925 0.365,1.054 0.122,1.188 L 9.319,-2.975 9.04,-2.086 8.589,-1.379 7.941,-0.862 7.053,-0.481 5.857,-0.215 4.347,-0.056 2.528,0 H 0"
             style="fill:#000000;stroke:#ff2400;stroke-width:0.028;stroke-linecap:round;stroke-linejoin:round;stroke-miterlimit:10;stroke-dasharray:none;stroke-opacity:1;fill-opacity:1"
             id="path96"
             inkscape:connector-curvature="0" /></g><g
           id="g98"
           transform="translate(417.1582,554.8213)"
           style="stroke:#ff2400;stroke-opacity:1;fill:#000000;fill-opacity:1"><path
             d="M 0,0 V -5.91 H -4.134 L -4.145,3.11 H 3.39 L 5.555,3.057 7.364,2.912 8.813,2.667 9.905,2.331 l 1.706,-0.963 1.221,-1.275 0.731,-1.582 0.245,-1.89 -0.086,-1.349 -0.251,-1.223 -0.428,-1.115 -0.59,-0.997 -0.784,-0.925 -1.02,-0.883 -1.243,-0.857 -1.471,-0.826 9.286,-12.245 H 12.208 L 3.72,-12.601 h -3.733 v -11.198 h -4.132 v 14.357 l 6.316,-0.033 1.584,0.086 1.4,0.276 1.239,0.461 1.061,0.639 0.852,0.802 0.611,0.925 0.365,1.054 0.123,1.188 L 9.313,-2.975 9.04,-2.086 8.582,-1.379 7.935,-0.862 7.047,-0.481 5.854,-0.215 4.339,-0.056 2.528,0 H 0"
             style="fill:#000000;stroke:#ff2400;stroke-width:0.028;stroke-linecap:round;stroke-linejoin:round;stroke-miterlimit:10;stroke-dasharray:none;stroke-opacity:1;fill-opacity:1"
             id="path100"
             inkscape:connector-curvature="0" /></g><g
           id="g102"
           transform="translate(559.5234,699.3882)"
           style="stroke:#ff2400;stroke-opacity:1;fill:#000000;fill-opacity:1"><path
             d="M 0,0 V -5.909 H -4.127 L -4.14,3.105 H 3.388 L 5.559,3.058 7.368,2.915 8.819,2.674 l 1.09,-0.338 1.707,-0.967 1.218,-1.273 0.734,-1.582 0.244,-1.891 -0.084,-1.344 -0.259,-1.23 -0.42,-1.116 -0.593,-0.997 -0.785,-0.919 -1.018,-0.888 -1.244,-0.857 -1.467,-0.823 9.283,-12.242 h -5.011 l -8.5,11.19 h -3.722 v -11.19 H -4.14 v 14.349 l 6.316,-0.03 1.577,0.087 1.409,0.275 1.236,0.46 1.058,0.647 0.851,0.798 0.618,0.926 0.364,1.054 0.12,1.182 -0.089,1.07 -0.278,0.891 -0.455,0.705 -0.645,0.52 L 7.05,-0.479 5.855,-0.212 4.346,-0.051 2.533,0 H 0"
             style="fill:#000000;stroke:#ff2400;stroke-width:0.028;stroke-linecap:round;stroke-linejoin:round;stroke-miterlimit:10;stroke-dasharray:none;stroke-opacity:1;fill-opacity:1"
             id="path104"
             inkscape:connector-curvature="0" /></g><g
           id="g106"
           transform="translate(511.332,747.5796)"
           style="stroke:#ff2400;stroke-opacity:1;fill:#000000;fill-opacity:1"><path
             d="M 0,0 V -5.909 H -4.125 L -4.131,3.105 H 3.395 L 5.559,3.057 7.371,2.912 8.82,2.669 9.912,2.331 11.619,1.367 12.84,0.094 l 0.73,-1.581 0.243,-1.89 -0.084,-1.348 -0.252,-1.228 -0.426,-1.115 -0.59,-0.996 -0.787,-0.921 -1.018,-0.887 -1.244,-0.857 -1.469,-0.822 9.286,-12.247 h -5.012 l -8.492,11.195 h -3.729 v -11.195 h -4.127 v 14.353 l 6.307,-0.032 1.582,0.088 1.404,0.277 1.238,0.459 1.057,0.642 0.857,0.803 0.61,0.923 0.367,1.054 0.121,1.186 L 9.32,-2.976 9.045,-2.089 8.588,-1.382 7.943,-0.861 7.055,-0.485 5.859,-0.217 4.352,-0.056 2.537,0 H 0"
             style="fill:#000000;stroke:#ff2400;stroke-width:0.028;stroke-linecap:round;stroke-linejoin:round;stroke-miterlimit:10;stroke-dasharray:none;stroke-opacity:1;fill-opacity:1"
             id="path108"
             inkscape:connector-curvature="0" /></g><g
           id="g110"
           transform="translate(219.1719,771.9707)"
           style="stroke:#ff2400;stroke-opacity:1;fill:#000000;fill-opacity:1"><path
             d="M 0,0 V 26.903 H 18.177 V 23.798 H 4.133 V 15.643 H 16.039 V 12.537 H 4.133 V 3.106 H 19.146 V 0 H 0"
             style="fill:#000000;stroke:#ff2400;stroke-width:0.028;stroke-linecap:round;stroke-linejoin:round;stroke-miterlimit:10;stroke-dasharray:none;stroke-opacity:1;fill-opacity:1"
             id="path112"
             inkscape:connector-curvature="0" /></g><g
           id="g114"
           transform="translate(236.4961,846.4326)"
           style="stroke:#ff2400;stroke-opacity:1;fill:#000000;fill-opacity:1"><path
             d="m 0,0 v -3.584 l -2.213,0.768 -2.092,0.552 -1.955,0.329 -1.836,0.11 -2.45,-0.235 -1.756,-0.708 -1.047,-1.178 -0.347,-1.65 0.261,-1.38 0.792,-1.082 1.489,-0.948 2.388,-0.97 2.64,-0.922 2.512,-0.866 1.37,-0.557 1.19,-0.647 1.005,-0.738 0.823,-0.822 0.64,-0.914 0.463,-1.003 0.269,-1.094 0.097,-1.183 -0.189,-1.773 -0.56,-1.586 -0.933,-1.398 -1.306,-1.21 -1.62,-0.975 -1.877,-0.699 -2.122,-0.42 -2.383,-0.141 -1.864,0.095 -2.123,0.277 -2.377,0.467 -2.627,0.651 v 4.093 l 2.627,-1.085 2.395,-0.773 2.165,-0.463 1.925,-0.153 1.457,0.073 1.3,0.226 1.144,0.374 0.988,0.528 0.799,0.654 0.573,0.761 0.341,0.862 0.11,0.965 -0.269,1.388 -0.81,1.066 -1.653,0.985 -2.802,1.155 -2.767,1.003 -1.903,0.771 -1.597,0.783 -1.273,0.789 -0.963,0.805 -0.703,0.871 -0.498,1.006 -0.307,1.145 -0.096,1.273 0.158,1.712 0.457,1.509 0.775,1.302 1.073,1.103 1.359,0.868 1.609,0.622 1.858,0.371 2.11,0.126 L -6.291,1.2 -4.305,0.96 -2.207,0.562 0,0"
             style="fill:#000000;stroke:#ff2400;stroke-width:0.028;stroke-linecap:round;stroke-linejoin:round;stroke-miterlimit:10;stroke-dasharray:none;stroke-opacity:1;fill-opacity:1"
             id="path116"
             inkscape:connector-curvature="0" /></g><g
           id="g118"
           transform="translate(267.3579,386.458)"
           style="stroke:#ff2400;stroke-opacity:1;fill:#000000;fill-opacity:1"><path
             d="M 0,0 V 26.904 H 18.176 V 23.798 H 4.132 V 15.646 H 16.036 V 12.535 H 4.132 V 3.107 H 19.138 L 19.138,0 H 0"
             style="fill:#000000;stroke:#ff2400;stroke-width:0.028;stroke-linecap:round;stroke-linejoin:round;stroke-miterlimit:10;stroke-dasharray:none;stroke-opacity:1;fill-opacity:1"
             id="path120"
             inkscape:connector-curvature="0" /></g><g
           id="g122"
           transform="translate(287.9731,435.4844)"
           style="stroke:#ff2400;stroke-opacity:1;fill:#000000;fill-opacity:1"><path
             d="m 0,0 -2.05,-0.654 -1.986,-0.463 -1.927,-0.281 -1.864,-0.09 -1.562,0.061 -1.486,0.186 -1.415,0.297 -1.329,0.42 -1.256,0.542 -1.17,0.66 -1.098,0.785 -1.018,0.902 -0.919,1.001 -0.792,1.069 -0.677,1.156 -0.555,1.224 -0.427,1.295 -0.305,1.381 -0.183,1.456 -0.06,1.529 0.06,1.55 0.183,1.475 0.305,1.403 0.427,1.328 0.547,1.25 0.672,1.169 0.792,1.099 0.909,1.023 1.012,0.926 1.091,0.799 1.158,0.677 1.237,0.554 1.311,0.434 1.39,0.31 1.457,0.183 1.535,0.063 1.812,-0.075 1.876,-0.231 1.937,-0.38 2.001,-0.529 v -3.805 l -2.034,0.837 -1.976,0.596 -1.902,0.361 -1.842,0.12 -1.998,-0.195 -1.805,-0.571 -1.628,-0.959 -1.437,-1.339 -1.178,-1.634 -0.84,-1.841 -0.507,-2.054 -0.165,-2.261 0.184,-2.287 0.573,-2.065 0.95,-1.846 1.328,-1.63 1.634,-1.328 1.842,-0.952 2.066,-0.565 2.286,-0.196 1.505,0.098 1.641,0.278 1.767,0.477 L 0,3.4 V 0"
             style="fill:#000000;stroke:#ff2400;stroke-width:0.028;stroke-linecap:round;stroke-linejoin:round;stroke-miterlimit:10;stroke-dasharray:none;stroke-opacity:1;fill-opacity:1"
             id="path124"
             inkscape:connector-curvature="0" /></g><g
           id="g126"
           transform="translate(267.3579,482.835)"
           style="stroke:#ff2400;stroke-opacity:1;fill:#000000;fill-opacity:1"><path
             d="M 0,0 V 26.906 H 19.138 V 23.799 H 4.132 V 14.538 H 16.939 V 11.432 H 4.132 V 0 Z"
             style="fill:#000000;stroke:#ff2400;stroke-width:0.028;stroke-linecap:round;stroke-linejoin:round;stroke-miterlimit:10;stroke-dasharray:none;stroke-opacity:1;fill-opacity:1"
             id="path128"
             inkscape:connector-curvature="0" /></g><g
           id="g130"
           transform="translate(267.3579,579.2158)"
           style="stroke:#ff2400;stroke-opacity:1;fill:#000000;fill-opacity:1"><path
             d="m 0,0 v 26.901 h 18.176 v -3.11 H 4.132 V 15.639 H 16.036 V 12.538 H 4.132 V 3.102 H 19.138 L 19.138,0 H 0"
             style="fill:#000000;stroke:#ff2400;stroke-width:0.028;stroke-linecap:round;stroke-linejoin:round;stroke-miterlimit:10;stroke-dasharray:none;stroke-opacity:1;fill-opacity:1"
             id="path132"
             inkscape:connector-curvature="0" /></g><g
           id="g134"
           transform="translate(267.6196,627.4048)"
           style="stroke:#ff2400;stroke-opacity:1;fill:#000000;fill-opacity:1"><path
             d="M 0,0 V 26.901 H 4.126 V 3.104 H 18.621 V 0 H 0"
             style="fill:#000000;stroke:#ff2400;stroke-width:0.028;stroke-linecap:round;stroke-linejoin:round;stroke-miterlimit:10;stroke-dasharray:none;stroke-opacity:1;fill-opacity:1"
             id="path136"
             inkscape:connector-curvature="0" /></g><g
           id="g138"
           transform="translate(267.0952,675.5527)"
           style="stroke:#ff2400;stroke-opacity:1;fill:#000000;fill-opacity:1"><path
             d="M 0,0 V 26.983 H 3.9 L 16.244,7.422 h 0.049 v 19.561 h 3.376 V 0 H 15.854 L 3.419,19.717 H 3.357 L 3.357,0 H 0"
             style="fill:#000000;stroke:#ff2400;stroke-width:0.028;stroke-linecap:round;stroke-linejoin:round;stroke-miterlimit:10;stroke-dasharray:none;stroke-opacity:1;fill-opacity:1"
             id="path140"
             inkscape:connector-curvature="0" /></g><g
           id="g142"
           transform="translate(267.3579,723.7817)"
           style="stroke:#ff2400;stroke-opacity:1;fill:#000000;fill-opacity:1"><path
             d="M 0,0 V 26.903 H 18.176 V 23.798 H 4.132 V 15.645 H 16.036 V 12.539 H 4.132 V 3.109 H 19.138 L 19.138,0 H 0"
             style="fill:#000000;stroke:#ff2400;stroke-width:0.028;stroke-linecap:round;stroke-linejoin:round;stroke-miterlimit:10;stroke-dasharray:none;stroke-opacity:1;fill-opacity:1"
             id="path144"
             inkscape:connector-curvature="0" /></g><g
           id="g146"
           transform="translate(267.0952,771.9707)"
           style="stroke:#ff2400;stroke-opacity:1;fill:#000000;fill-opacity:1"><path
             d="M 0,0 V 26.903 H 4.127 V 15.144 h 11.386 v 11.759 h 4.156 V 0 H 15.513 V 12.038 H 4.127 L 4.127,0 H 0"
             style="fill:#000000;stroke:#ff2400;stroke-width:0.028;stroke-linecap:round;stroke-linejoin:round;stroke-miterlimit:10;stroke-dasharray:none;stroke-opacity:1;fill-opacity:1"
             id="path148"
             inkscape:connector-curvature="0" /></g><g
           id="g150"
           transform="translate(266.1138,820.1597)"
           style="stroke:#ff2400;stroke-opacity:1;fill:#000000;fill-opacity:1"><path
             d="M 0,0 V 26.903 H 4.126 V 13.712 l 11.259,13.191 h 4.169 L 8.704,14.215 21.633,0 H 16.689 L 4.126,13.712 V 0 H 0"
             style="fill:#000000;stroke:#ff2400;stroke-width:0.028;stroke-linecap:round;stroke-linejoin:round;stroke-miterlimit:10;stroke-dasharray:none;stroke-opacity:1;fill-opacity:1"
             id="path152"
             inkscape:connector-curvature="0" /></g><g
           id="g154"
           transform="translate(336.1577,387.3018)"
           style="stroke:#ff2400;stroke-opacity:1;fill:#000000;fill-opacity:1"><path
             d="m 0,0 -2.041,-0.651 -1.988,-0.472 -1.927,-0.273 -1.864,-0.097 -1.562,0.062 -1.486,0.182 -1.413,0.299 -1.33,0.422 -1.256,0.54 -1.169,0.66 -1.1,0.783 -1.022,0.904 -0.914,0.999 -0.794,1.073 -0.677,1.153 -0.553,1.223 -0.427,1.306 -0.305,1.378 -0.184,1.45 -0.066,1.53 0.066,1.549 0.184,1.48 0.305,1.395 0.427,1.331 0.547,1.248 0.67,1.171 0.793,1.104 0.908,1.016 1.013,0.927 1.091,0.799 1.157,0.674 1.237,0.559 1.311,0.429 1.39,0.312 1.458,0.185 1.536,0.061 1.809,-0.077 1.879,-0.226 1.938,-0.381 2.001,-0.53 v -3.805 l -2.038,0.837 -1.974,0.597 -1.907,0.36 -1.836,0.122 -1.998,-0.197 -1.805,-0.571 -1.629,-0.959 -1.437,-1.341 -1.178,-1.632 -0.84,-1.842 -0.507,-2.053 -0.164,-2.264 0.183,-2.283 0.574,-2.067 0.95,-1.845 1.329,-1.631 1.633,-1.324 1.842,-0.953 2.066,-0.569 2.285,-0.193 1.506,0.097 1.639,0.279 1.769,0.475 L 0,3.396 V 0"
             style="fill:#000000;stroke:#ff2400;stroke-width:0.028;stroke-linecap:round;stroke-linejoin:round;stroke-miterlimit:10;stroke-dasharray:none;stroke-opacity:1;fill-opacity:1"
             id="path156"
             inkscape:connector-curvature="0" /></g><g
           id="g158"
           transform="translate(315.2866,434.6484)"
           style="stroke:#ff2400;stroke-opacity:1;fill:#000000;fill-opacity:1"><path
             d="M 0,0 V 26.901 H 4.127 V 15.143 H 15.512 V 26.901 H 19.67 V 0 H 15.512 V 12.037 H 4.127 L 4.127,0 H 0"
             style="fill:#000000;stroke:#ff2400;stroke-width:0.028;stroke-linecap:round;stroke-linejoin:round;stroke-miterlimit:10;stroke-dasharray:none;stroke-opacity:1;fill-opacity:1"
             id="path160"
             inkscape:connector-curvature="0" /></g><g
           id="g162"
           transform="translate(315.2866,482.793)"
           style="stroke:#ff2400;stroke-opacity:1;fill:#000000;fill-opacity:1"><path
             d="M 0,0 V 26.991 H 3.902 L 16.244,7.425 h 0.043 V 26.991 H 19.67 L 19.67,0 H 15.854 L 3.42,19.719 H 3.359 V 0 H 0"
             style="fill:#000000;stroke:#ff2400;stroke-width:0.028;stroke-linecap:round;stroke-linejoin:round;stroke-miterlimit:10;stroke-dasharray:none;stroke-opacity:1;fill-opacity:1"
             id="path164"
             inkscape:connector-curvature="0" /></g><g
           id="g166"
           transform="translate(315.5483,531.0225)"
           style="stroke:#ff2400;stroke-opacity:1;fill:#000000;fill-opacity:1"><path
             d="m 0,0 v 26.909 h 18.178 v -3.11 H 4.134 V 15.647 H 16.037 V 12.538 H 4.134 V 3.11 H 19.141 V 0 L 0,0"
             style="fill:#000000;stroke:#ff2400;stroke-width:0.028;stroke-linecap:round;stroke-linejoin:round;stroke-miterlimit:10;stroke-dasharray:none;stroke-opacity:1;fill-opacity:1"
             id="path168"
             inkscape:connector-curvature="0" /></g><g
           id="g170"
           transform="translate(315.811,579.2158)"
           style="stroke:#ff2400;stroke-opacity:1;fill:#000000;fill-opacity:1"><path
             d="M 0,0 V 3.102 H 7.237 V 23.791 H 0 v 3.11 h 18.621 v -3.11 H 11.38 V 3.102 h 7.241 V 0 H 0"
             style="fill:#000000;stroke:#ff2400;stroke-width:0.028;stroke-linecap:round;stroke-linejoin:round;stroke-miterlimit:10;stroke-dasharray:none;stroke-opacity:1;fill-opacity:1"
             id="path172"
             inkscape:connector-curvature="0" /></g><g
           id="g174"
           transform="translate(315.811,723.7817)"
           style="stroke:#ff2400;stroke-opacity:1;fill:#000000;fill-opacity:1"><path
             d="M 0,0 V 3.109 H 7.237 V 23.798 H 0 v 3.105 H 18.621 V 23.798 H 11.38 V 3.109 h 7.241 V 0 H 0"
             style="fill:#000000;stroke:#ff2400;stroke-width:0.028;stroke-linecap:round;stroke-linejoin:round;stroke-miterlimit:10;stroke-dasharray:none;stroke-opacity:1;fill-opacity:1"
             id="path176"
             inkscape:connector-curvature="0" /></g><g
           id="g178"
           transform="translate(315.2866,771.9287)"
           style="stroke:#ff2400;stroke-opacity:1;fill:#000000;fill-opacity:1"><path
             d="M 0,0 V 26.987 H 3.902 L 16.244,7.422 h 0.043 V 26.987 H 19.67 L 19.67,0 H 15.854 L 3.42,19.716 H 3.359 V 0 H 0"
             style="fill:#000000;stroke:#ff2400;stroke-width:0.028;stroke-linecap:round;stroke-linejoin:round;stroke-miterlimit:10;stroke-dasharray:none;stroke-opacity:1;fill-opacity:1"
             id="path180"
             inkscape:connector-curvature="0" /></g><g
           id="g182"
           transform="translate(315.811,820.1597)"
           style="stroke:#ff2400;stroke-opacity:1;fill:#000000;fill-opacity:1"><path
             d="m 0,0 v 3.108 h 7.237 v 20.69 H 0 v 3.105 H 18.621 V 23.798 H 11.38 V 3.108 h 7.241 V 0 H 0"
             style="fill:#000000;stroke:#ff2400;stroke-width:0.028;stroke-linecap:round;stroke-linejoin:round;stroke-miterlimit:10;stroke-dasharray:none;stroke-opacity:1;fill-opacity:1"
             id="path184"
             inkscape:connector-curvature="0" /></g><g
           id="g186"
           transform="translate(363.4785,386.458)"
           style="stroke:#ff2400;stroke-opacity:1;fill:#000000;fill-opacity:1"><path
             d="M 0,0 V 26.904 H 4.127 V 15.146 h 11.387 v 11.758 h 4.152 V 0 H 15.514 V 12.037 H 4.127 L 4.127,0 H 0"
             style="fill:#000000;stroke:#ff2400;stroke-width:0.028;stroke-linecap:round;stroke-linejoin:round;stroke-miterlimit:10;stroke-dasharray:none;stroke-opacity:1;fill-opacity:1"
             id="path188"
             inkscape:connector-curvature="0" /></g><g
           id="g190"
           transform="translate(371.2324,434.6484)"
           style="stroke:#ff2400;stroke-opacity:1;fill:#000000;fill-opacity:1"><path
             d="m 0,0 v 23.8 h -10.331 v 3.101 H 14.49 V 23.8 H 4.151 L 4.151,0 H 0"
             style="fill:#000000;stroke:#ff2400;stroke-width:0.028;stroke-linecap:round;stroke-linejoin:round;stroke-miterlimit:10;stroke-dasharray:none;stroke-opacity:1;fill-opacity:1"
             id="path192"
             inkscape:connector-curvature="0" /></g><g
           id="g194"
           transform="translate(363.7402,482.835)"
           style="stroke:#ff2400;stroke-opacity:1;fill:#000000;fill-opacity:1"><path
             d="M 0,0 V 26.906 H 18.178 V 23.799 H 4.127 V 15.645 H 16.039 V 12.537 H 4.127 V 3.109 H 19.141 V 0 H 0"
             style="fill:#000000;stroke:#ff2400;stroke-width:0.028;stroke-linecap:round;stroke-linejoin:round;stroke-miterlimit:10;stroke-dasharray:none;stroke-opacity:1;fill-opacity:1"
             id="path196"
             inkscape:connector-curvature="0" /></g><g
           id="g198"
           transform="translate(363.9961,531.0225)"
           style="stroke:#ff2400;stroke-opacity:1;fill:#000000;fill-opacity:1"><path
             d="M 0,0 V 3.11 H 7.242 V 23.799 H 0 v 3.11 h 18.629 v -3.11 H 11.388 V 3.11 h 7.241 V 0 L 0,0"
             style="fill:#000000;stroke:#ff2400;stroke-width:0.028;stroke-linecap:round;stroke-linejoin:round;stroke-miterlimit:10;stroke-dasharray:none;stroke-opacity:1;fill-opacity:1"
             id="path200"
             inkscape:connector-curvature="0" /></g><g
           id="g202"
           transform="translate(363.4785,579.1738)"
           style="stroke:#ff2400;stroke-opacity:1;fill:#000000;fill-opacity:1"><path
             d="M 0,0 V 26.985 H 3.9 L 16.246,7.416 h 0.042 v 19.569 h 3.378 V 0 H 15.855 L 3.42,19.711 H 3.359 V 0 H 0"
             style="fill:#000000;stroke:#ff2400;stroke-width:0.028;stroke-linecap:round;stroke-linejoin:round;stroke-miterlimit:10;stroke-dasharray:none;stroke-opacity:1;fill-opacity:1"
             id="path204"
             inkscape:connector-curvature="0" /></g><g
           id="g206"
           transform="translate(384.3496,676.4312)"
           style="stroke:#ff2400;stroke-opacity:1;fill:#000000;fill-opacity:1"><path
             d="m 0,0 -2.042,-0.653 -1.986,-0.463 -1.927,-0.281 -1.866,-0.091 -1.56,0.056 -1.486,0.185 -1.416,0.297 -1.328,0.422 -1.256,0.543 -1.17,0.662 -1.097,0.781 -1.022,0.902 -0.917,0.999 -0.797,1.075 -0.677,1.151 -0.551,1.226 -0.423,1.3 -0.307,1.379 -0.188,1.453 -0.062,1.531 0.062,1.551 0.183,1.476 0.304,1.4 0.425,1.324 0.55,1.249 0.671,1.176 0.793,1.097 0.914,1.025 1.011,0.923 1.085,0.799 1.164,0.68 1.23,0.555 1.318,0.428 1.389,0.312 1.458,0.182 1.537,0.064 1.81,-0.079 1.877,-0.229 1.938,-0.377 2,-0.535 v -3.796 l -2.036,0.834 -1.975,0.598 -1.908,0.357 -1.834,0.118 -1.999,-0.188 -1.805,-0.576 -1.627,-0.957 -1.445,-1.338 -1.171,-1.636 -0.841,-1.845 -0.512,-2.05 -0.164,-2.265 0.19,-2.282 0.572,-2.065 0.95,-1.847 1.329,-1.626 1.627,-1.329 1.846,-0.952 2.061,-0.573 2.292,-0.188 1.506,0.093 1.639,0.285 1.769,0.467 L 0,3.397 V 0"
             style="fill:#000000;stroke:#ff2400;stroke-width:0.028;stroke-linecap:round;stroke-linejoin:round;stroke-miterlimit:10;stroke-dasharray:none;stroke-opacity:1;fill-opacity:1"
             id="path208"
             inkscape:connector-curvature="0" /></g><g
           id="g210"
           transform="translate(371.1221,723.7817)"
           style="stroke:#ff2400;stroke-opacity:1;fill:#000000;fill-opacity:1"><path
             d="m 0,0 -10.44,26.903 h 4.357 L 2.519,5.52 11.294,26.903 h 3.523 L 4.152,0 Z"
             style="fill:#000000;stroke:#ff2400;stroke-width:0.028;stroke-linecap:round;stroke-linejoin:round;stroke-miterlimit:10;stroke-dasharray:none;stroke-opacity:1;fill-opacity:1"
             id="path212"
             inkscape:connector-curvature="0" /></g><g
           id="g214"
           transform="translate(362.4492,771.9707)"
           style="stroke:#ff2400;stroke-opacity:1;fill:#000000;fill-opacity:1"><path
             d="M 0,0 V 3.106 L 16.885,23.798 H 1.035 v 3.105 H 21.554 V 23.798 L 4.693,3.106 H 21.725 V 0 Z"
             style="fill:#000000;stroke:#ff2400;stroke-width:0.028;stroke-linecap:round;stroke-linejoin:round;stroke-miterlimit:10;stroke-dasharray:none;stroke-opacity:1;fill-opacity:1"
             id="path216"
             inkscape:connector-curvature="0" /></g><g
           id="g218"
           transform="translate(381.0645,846.4326)"
           style="stroke:#ff2400;stroke-opacity:1;fill:#000000;fill-opacity:1"><path
             d="m 0,0 v -3.584 l -2.22,0.768 -2.083,0.552 -1.963,0.329 -1.828,0.11 -2.451,-0.235 -1.756,-0.708 -1.049,-1.178 -0.352,-1.65 0.266,-1.38 0.788,-1.082 1.493,-0.948 2.389,-0.97 2.634,-0.922 2.511,-0.866 1.379,-0.557 1.181,-0.647 1.013,-0.738 0.822,-0.822 0.64,-0.914 0.457,-1.003 0.275,-1.094 0.092,-1.183 -0.189,-1.773 -0.562,-1.586 -0.926,-1.398 -1.304,-1.21 -1.622,-0.975 -1.877,-0.699 -2.127,-0.42 -2.379,-0.141 -1.871,0.095 -2.119,0.277 -2.373,0.467 -2.633,0.651 v 4.093 l 2.633,-1.085 2.394,-0.773 2.165,-0.463 1.927,-0.153 1.457,0.073 1.299,0.226 1.139,0.374 0.994,0.528 0.798,0.654 0.573,0.761 0.342,0.862 0.109,0.965 -0.268,1.388 -0.811,1.066 -1.652,0.985 -2.803,1.155 -2.769,1.003 -1.907,0.771 -1.591,0.783 -1.278,0.789 -0.964,0.805 -0.697,0.871 -0.498,1.006 -0.305,1.145 -0.098,1.273 0.152,1.712 0.465,1.509 0.767,1.302 1.077,1.103 1.355,0.868 1.609,0.622 1.866,0.371 2.102,0.126 L -6.289,1.2 -4.303,0.96 -2.207,0.562 0,0"
             style="fill:#000000;stroke:#ff2400;stroke-width:0.028;stroke-linecap:round;stroke-linejoin:round;stroke-miterlimit:10;stroke-dasharray:none;stroke-opacity:1;fill-opacity:1"
             id="path220"
             inkscape:connector-curvature="0" /></g><g
           id="g222"
           transform="translate(430.335,412.7324)"
           style="stroke:#ff2400;stroke-opacity:1;fill:#000000;fill-opacity:1"><path
             d="m 0,0 v -3.586 l -2.211,0.771 -2.092,0.554 -1.958,0.329 -1.832,0.11 -2.45,-0.239 -1.757,-0.708 -1.049,-1.176 -0.351,-1.651 0.267,-1.385 0.787,-1.078 1.493,-0.947 2.39,-0.974 2.639,-0.92 2.511,-0.866 1.372,-0.553 1.19,-0.647 1.003,-0.735 0.822,-0.825 0.641,-0.914 0.458,-1.006 0.273,-1.092 0.092,-1.181 -0.18,-1.774 -0.561,-1.587 -0.935,-1.399 -1.304,-1.208 -1.629,-0.981 -1.87,-0.696 -2.129,-0.42 -2.374,-0.14 -1.866,0.098 -2.12,0.272 -2.379,0.472 -2.634,0.651 v 4.091 l 2.634,-1.088 2.396,-0.772 2.163,-0.463 1.925,-0.153 1.457,0.072 1.301,0.227 1.142,0.377 0.991,0.522 0.796,0.661 0.567,0.755 0.344,0.859 0.114,0.97 -0.268,1.394 -0.808,1.063 -1.659,0.982 -2.805,1.158 -2.761,1 -1.907,0.775 -1.592,0.778 -1.281,0.792 -0.961,0.805 -0.696,0.873 -0.499,1.006 -0.305,1.139 -0.099,1.272 0.154,1.716 0.46,1.505 0.772,1.304 1.078,1.103 1.354,0.87 1.608,0.625 1.863,0.369 L -8.16,1.28 -6.29,1.198 -4.309,0.962 -2.211,0.56 0,0"
             style="fill:#000000;stroke:#ff2400;stroke-width:0.028;stroke-linecap:round;stroke-linejoin:round;stroke-miterlimit:10;stroke-dasharray:none;stroke-opacity:1;fill-opacity:1"
             id="path224"
             inkscape:connector-curvature="0" /></g><g
           id="g226"
           transform="translate(411.2334,434.6484)"
           style="stroke:#ff2400;stroke-opacity:1;fill:#000000;fill-opacity:1"><path
             d="M 0,0 V 3.11 L 16.885,23.8 H 1.029 v 3.101 H 21.553 V 23.8 L 4.693,3.11 H 21.72 V 0 Z"
             style="fill:#000000;stroke:#ff2400;stroke-width:0.028;stroke-linecap:round;stroke-linejoin:round;stroke-miterlimit:10;stroke-dasharray:none;stroke-opacity:1;fill-opacity:1"
             id="path228"
             inkscape:connector-curvature="0" /></g><g
           id="g230"
           transform="translate(412.3682,510.0654)"
           style="stroke:#ff2400;stroke-opacity:1;fill:#000000;fill-opacity:1"><path
             d="m 0,0 h 4.125 v -16.332 l 0.087,-1.991 0.249,-1.696 0.426,-1.402 0.592,-1.108 0.781,-0.836 0.993,-0.604 1.194,-0.361 1.403,-0.114 1.486,0.114 1.259,0.361 1.032,0.604 0.818,0.836 0.615,1.113 0.44,1.422 0.263,1.731 0.085,2.034 V 0 h 3.608 v -15.624 l -0.074,-2.349 -0.227,-1.991 -0.376,-1.635 -0.518,-1.278 -0.69,-1.097 -0.786,-0.948 -0.889,-0.803 -0.996,-0.658 -1.093,-0.512 -1.203,-0.367 -1.305,-0.219 -1.405,-0.073 -2.36,0.178 -2.036,0.52 -1.707,0.861 -1.378,1.215 -1.055,1.567 -0.755,1.944 -0.457,2.308 L 0,-16.271 V 0"
             style="fill:#000000;stroke:#ff2400;stroke-width:0.028;stroke-linecap:round;stroke-linejoin:round;stroke-miterlimit:10;stroke-dasharray:none;stroke-opacity:1;fill-opacity:1"
             id="path232"
             inkscape:connector-curvature="0" /></g><g
           id="g234"
           transform="translate(430.335,605.4795)"
           style="stroke:#ff2400;stroke-opacity:1;fill:#000000;fill-opacity:1"><path
             d="m 0,0 v -3.583 l -2.211,0.773 -2.092,0.549 -1.958,0.333 -1.832,0.108 -2.45,-0.24 -1.757,-0.706 -1.049,-1.176 -0.351,-1.652 0.267,-1.378 0.787,-1.088 1.493,-0.942 2.39,-0.969 2.639,-0.926 2.511,-0.864 1.372,-0.555 1.19,-0.648 1.003,-0.738 0.822,-0.821 0.641,-0.915 0.458,-1.006 0.273,-1.093 0.092,-1.181 -0.18,-1.775 -0.561,-1.582 -0.935,-1.404 -1.304,-1.206 -1.622,-0.975 -1.877,-0.701 -2.129,-0.42 -2.374,-0.134 -1.866,0.088 -2.12,0.283 -2.379,0.463 -2.627,0.653 v 4.09 l 2.627,-1.088 2.396,-0.765 2.163,-0.47 1.925,-0.152 1.457,0.073 1.301,0.225 1.142,0.377 0.991,0.525 0.796,0.659 0.567,0.754 0.349,0.866 0.109,0.965 -0.268,1.39 -0.808,1.065 -1.654,0.98 -2.802,1.161 -2.769,0.999 -1.903,0.775 -1.596,0.778 -1.281,0.794 -0.955,0.804 -0.702,0.87 -0.499,1.009 -0.305,1.137 -0.099,1.276 0.154,1.714 0.46,1.51 0.772,1.302 1.078,1.099 1.354,0.872 1.608,0.62 1.863,0.374 L -8.16,1.289 -6.29,1.203 -4.303,0.964 -2.211,0.562 0,0"
             style="fill:#000000;stroke:#ff2400;stroke-width:0.028;stroke-linecap:round;stroke-linejoin:round;stroke-miterlimit:10;stroke-dasharray:none;stroke-opacity:1;fill-opacity:1"
             id="path236"
             inkscape:connector-curvature="0" /></g><g
           id="g238"
           transform="translate(411.2334,627.4048)"
           style="stroke:#ff2400;stroke-opacity:1;fill:#000000;fill-opacity:1"><path
             d="M 0,0 V 3.104 L 16.885,23.796 H 1.037 v 3.105 H 21.553 V 23.796 L 4.693,3.104 h 17.032 l 0,-3.104 z"
             style="fill:#000000;stroke:#ff2400;stroke-width:0.028;stroke-linecap:round;stroke-linejoin:round;stroke-miterlimit:10;stroke-dasharray:none;stroke-opacity:1;fill-opacity:1"
             id="path240"
             inkscape:connector-curvature="0" /></g><g
           id="g242"
           transform="translate(412.2705,675.5952)"
           style="stroke:#ff2400;stroke-opacity:1;fill:#000000;fill-opacity:1"><path
             d="M 0,0 V 26.898 H 4.125 V 15.141 h 11.389 v 11.757 h 4.148 V 0 H 15.514 V 12.035 H 4.125 V 0 H 0"
             style="fill:#000000;stroke:#ff2400;stroke-width:0.028;stroke-linecap:round;stroke-linejoin:round;stroke-miterlimit:10;stroke-dasharray:none;stroke-opacity:1;fill-opacity:1"
             id="path244"
             inkscape:connector-curvature="0" /></g><g
           id="g246"
           transform="translate(412.7861,723.7817)"
           style="stroke:#ff2400;stroke-opacity:1;fill:#000000;fill-opacity:1"><path
             d="M 0,0 V 3.109 H 7.236 V 23.798 H 0 v 3.105 H 18.622 V 23.798 H 11.387 V 3.109 h 7.235 V 0 H 0"
             style="fill:#000000;stroke:#ff2400;stroke-width:0.028;stroke-linecap:round;stroke-linejoin:round;stroke-miterlimit:10;stroke-dasharray:none;stroke-opacity:1;fill-opacity:1"
             id="path248"
             inkscape:connector-curvature="0" /></g><g
           id="g250"
           transform="translate(412.4951,771.9707)"
           style="stroke:#ff2400;stroke-opacity:1;fill:#000000;fill-opacity:1"><path
             d="m 0,0 -3.999,26.903 h 3.518 L 2.792,4.555 H 2.859 L 6.734,21.22 h 3.98 L 14.525,4.803 h 0.056 l 3.454,22.1 h 3.14 L 16.758,0 H 12.263 L 8.565,15.788 H 8.514 L 4.785,0 Z"
             style="fill:#000000;stroke:#ff2400;stroke-width:0.028;stroke-linecap:round;stroke-linejoin:round;stroke-miterlimit:10;stroke-dasharray:none;stroke-opacity:1;fill-opacity:1"
             id="path252"
             inkscape:connector-curvature="0" /></g><g
           id="g254"
           transform="translate(420.0166,820.1597)"
           style="stroke:#ff2400;stroke-opacity:1;fill:#000000;fill-opacity:1"><path
             d="m 0,0 v 23.798 h -10.332 v 3.105 h 24.82 V 23.798 H 4.152 L 4.152,0 H 0"
             style="fill:#000000;stroke:#ff2400;stroke-width:0.028;stroke-linecap:round;stroke-linejoin:round;stroke-miterlimit:10;stroke-dasharray:none;stroke-opacity:1;fill-opacity:1"
             id="path256"
             inkscape:connector-curvature="0" /></g><g
           id="g258"
           transform="translate(461.1289,386.458)"
           style="stroke:#ff2400;stroke-opacity:1;fill:#000000;fill-opacity:1"><path
             d="M 0,0 V 26.904 H 19.143 V 23.798 H 4.131 v -9.259 h 12.81 v -3.11 H 4.131 L 4.131,0 Z"
             style="fill:#000000;stroke:#ff2400;stroke-width:0.028;stroke-linecap:round;stroke-linejoin:round;stroke-miterlimit:10;stroke-dasharray:none;stroke-opacity:1;fill-opacity:1"
             id="path260"
             inkscape:connector-curvature="0" /></g><g
           id="g262"
           transform="translate(461.1289,434.6484)"
           style="stroke:#ff2400;stroke-opacity:1;fill:#000000;fill-opacity:1"><path
             d="M 0,0 V 26.901 H 18.18 V 23.8 H 4.131 v -8.153 h 11.91 v -3.11 H 4.131 V 3.11 H 19.143 V 0 L 0,0"
             style="fill:#000000;stroke:#ff2400;stroke-width:0.028;stroke-linecap:round;stroke-linejoin:round;stroke-miterlimit:10;stroke-dasharray:none;stroke-opacity:1;fill-opacity:1"
             id="path264"
             inkscape:connector-curvature="0" /></g><g
           id="g266"
           transform="translate(460.8711,482.793)"
           style="stroke:#ff2400;stroke-opacity:1;fill:#000000;fill-opacity:1"><path
             d="M 0,0 V 26.991 H 3.9 L 16.24,7.425 h 0.047 v 19.566 h 3.377 V 0 H 15.848 L 3.418,19.719 H 3.35 L 3.35,0 H 0"
             style="fill:#000000;stroke:#ff2400;stroke-width:0.028;stroke-linecap:round;stroke-linejoin:round;stroke-miterlimit:10;stroke-dasharray:none;stroke-opacity:1;fill-opacity:1"
             id="path268"
             inkscape:connector-curvature="0" /></g><g
           id="g270"
           transform="translate(460.8711,531.0225)"
           style="stroke:#ff2400;stroke-opacity:1;fill:#000000;fill-opacity:1"><path
             d="M 0,0 V 26.909 H 4.125 V 15.146 h 11.387 v 11.763 h 4.152 V 0 H 15.512 V 12.037 H 4.125 V 0 H 0"
             style="fill:#000000;stroke:#ff2400;stroke-width:0.028;stroke-linecap:round;stroke-linejoin:round;stroke-miterlimit:10;stroke-dasharray:none;stroke-opacity:1;fill-opacity:1"
             id="path272"
             inkscape:connector-curvature="0" /></g><g
           id="g274"
           transform="translate(461.3887,579.2158)"
           style="stroke:#ff2400;stroke-opacity:1;fill:#000000;fill-opacity:1"><path
             d="M 0,0 V 3.102 H 7.236 V 23.791 H 0 v 3.11 h 18.619 v -3.11 H 11.385 V 3.102 h 7.234 V 0 H 0"
             style="fill:#000000;stroke:#ff2400;stroke-width:0.028;stroke-linecap:round;stroke-linejoin:round;stroke-miterlimit:10;stroke-dasharray:none;stroke-opacity:1;fill-opacity:1"
             id="path276"
             inkscape:connector-curvature="0" /></g><g
           id="g278"
           transform="translate(461.1016,627.4048)"
           style="stroke:#ff2400;stroke-opacity:1;fill:#000000;fill-opacity:1"><path
             d="M 0,0 -3.998,26.901 H -0.48 L 2.793,4.553 h 0.059 l 3.884,16.669 h 3.973 L 14.523,4.803 h 0.051 l 3.463,22.098 h 3.139 L 16.75,0 H 12.262 L 8.555,15.787 H 8.516 L 4.779,0 Z"
             style="fill:#000000;stroke:#ff2400;stroke-width:0.028;stroke-linecap:round;stroke-linejoin:round;stroke-miterlimit:10;stroke-dasharray:none;stroke-opacity:1;fill-opacity:1"
             id="path280"
             inkscape:connector-curvature="0" /></g><g
           id="g282"
           transform="translate(467.502,675.5952)"
           style="stroke:#ff2400;stroke-opacity:1;fill:#000000;fill-opacity:1"><path
             d="m 0,0 -10.441,26.898 h 4.357 L 2.518,5.517 11.289,26.898 H 14.82 L 4.148,0 Z"
             style="fill:#000000;stroke:#ff2400;stroke-width:0.028;stroke-linecap:round;stroke-linejoin:round;stroke-miterlimit:10;stroke-dasharray:none;stroke-opacity:1;fill-opacity:1"
             id="path284"
             inkscape:connector-curvature="0" /></g><g
           id="g286"
           transform="translate(461.1289,723.7817)"
           style="stroke:#ff2400;stroke-opacity:1;fill:#000000;fill-opacity:1"><path
             d="M 0,0 V 26.903 H 18.18 V 23.798 H 4.131 v -8.153 h 11.91 V 12.539 H 4.131 V 3.109 H 19.143 V 0 H 0"
             style="fill:#000000;stroke:#ff2400;stroke-width:0.028;stroke-linecap:round;stroke-linejoin:round;stroke-miterlimit:10;stroke-dasharray:none;stroke-opacity:1;fill-opacity:1"
             id="path288"
             inkscape:connector-curvature="0" /></g><g
           id="g290"
           transform="translate(467.8711,781.8027)"
           style="stroke:#ff2400;stroke-opacity:1;fill:#000000;fill-opacity:1"><path
             d="m 0,0 -1.18,-3.104 h 3.785 4.969 l 2.528,-6.728 h 4.39 L 3.885,17.071 H -0.242 L -10.855,-9.832 h 3.558 L -3.479,0 1.41,12.855 6.334,0 H 2.572 0"
             style="fill:#000000;stroke:#ff2400;stroke-width:0.028;stroke-linecap:round;stroke-linejoin:round;stroke-miterlimit:10;stroke-dasharray:none;stroke-opacity:1;fill-opacity:1"
             id="path292"
             inkscape:connector-curvature="0" /></g><g
           id="g294"
           transform="translate(323.3022,685.4263)"
           style="stroke:#ff2400;stroke-opacity:1;fill:#000000;fill-opacity:1"><path
             d="M 0,0 -1.182,-3.104 H 2.602 7.57 l 2.537,-6.727 h 4.389 L 3.889,17.067 H -0.244 L -10.855,-9.831 H -7.29 L -3.475,0 1.414,12.854 6.334,0 H 2.572 0"
             style="fill:#000000;stroke:#ff2400;stroke-width:0.028;stroke-linecap:round;stroke-linejoin:round;stroke-miterlimit:10;stroke-dasharray:none;stroke-opacity:1;fill-opacity:1"
             id="path296"
             inkscape:connector-curvature="0" /></g><g
           id="g298"
           transform="translate(226.9268,637.2397)"
           style="stroke:#ff2400;stroke-opacity:1;fill:#000000;fill-opacity:1"><path
             d="M 0,0 -1.185,-3.105 H 2.602 7.57 l 2.534,-6.73 h 4.39 L 3.888,17.066 H -0.246 L -10.858,-9.835 h 3.566 L -3.476,0 1.413,12.853 6.333,0 H 2.571 0"
             style="fill:#000000;stroke:#ff2400;stroke-width:0.028;stroke-linecap:round;stroke-linejoin:round;stroke-miterlimit:10;stroke-dasharray:none;stroke-opacity:1;fill-opacity:1"
             id="path300"
             inkscape:connector-curvature="0" /></g><g
           id="g302"
           transform="translate(226.9268,444.4795)"
           style="stroke:#ff2400;stroke-opacity:1;fill:#000000;fill-opacity:1"><path
             d="M 0,0 -1.185,-3.102 H 2.602 7.57 l 2.534,-6.729 h 4.39 L 3.888,17.07 H -0.246 L -10.858,-9.831 h 3.566 L -3.476,0 1.413,12.856 6.333,0 H 2.571 0"
             style="fill:#000000;stroke:#ff2400;stroke-width:0.028;stroke-linecap:round;stroke-linejoin:round;stroke-miterlimit:10;stroke-dasharray:none;stroke-opacity:1;fill-opacity:1"
             id="path304"
             inkscape:connector-curvature="0" /></g><g
           id="g306"
           transform="translate(461.3887,820.1597)"
           style="stroke:#ff2400;stroke-opacity:1;fill:#000000;fill-opacity:1"><path
             d="M 0,0 V 26.903 H 4.133 V 3.108 H 18.619 V 0 H 0"
             style="fill:#000000;stroke:#ff2400;stroke-width:0.028;stroke-linecap:round;stroke-linejoin:round;stroke-miterlimit:10;stroke-dasharray:none;stroke-opacity:1;fill-opacity:1"
             id="path308"
             inkscape:connector-curvature="0" /></g><g
           id="g310"
           transform="translate(506.9219,386.458)"
           style="stroke:#ff2400;stroke-opacity:1;fill:#000000;fill-opacity:1"><path
             d="m 0,0 v 26.904 h 4.963 l 5.916,-16.566 h 0.041 l 5.81,16.566 h 5.182 V 0 H 18.535 V 23.09 H 18.492 L 12.432,5.687 H 8.953 L 2.91,22.601 H 2.869 L 2.869,0 Z"
             style="fill:#000000;stroke:#ff2400;stroke-width:0.028;stroke-linecap:round;stroke-linejoin:round;stroke-miterlimit:10;stroke-dasharray:none;stroke-opacity:1;fill-opacity:1"
             id="path312"
             inkscape:connector-curvature="0" /></g><g
           id="g314"
           transform="translate(508.0488,434.6484)"
           style="stroke:#ff2400;stroke-opacity:1;fill:#000000;fill-opacity:1"><path
             d="M 0,0 V 26.901 H 4.127 V 15.143 H 15.51 v 11.758 h 4.152 V 0 H 15.51 V 12.037 H 4.127 L 4.127,0 H 0"
             style="fill:#000000;stroke:#ff2400;stroke-width:0.028;stroke-linecap:round;stroke-linejoin:round;stroke-miterlimit:10;stroke-dasharray:none;stroke-opacity:1;fill-opacity:1"
             id="path316"
             inkscape:connector-curvature="0" /></g><g
           id="g318"
           transform="translate(515.6836,482.835)"
           style="stroke:#ff2400;stroke-opacity:1;fill:#000000;fill-opacity:1"><path
             d="m 0,0 -10.436,26.906 h 4.36 L 2.525,5.521 11.297,26.906 h 3.527 L 4.152,0 Z"
             style="fill:#000000;stroke:#ff2400;stroke-width:0.028;stroke-linecap:round;stroke-linejoin:round;stroke-miterlimit:10;stroke-dasharray:none;stroke-opacity:1;fill-opacity:1"
             id="path320"
             inkscape:connector-curvature="0" /></g><g
           id="g322"
           transform="translate(508.3047,531.0225)"
           style="stroke:#ff2400;stroke-opacity:1;fill:#000000;fill-opacity:1"><path
             d="m 0,0 v 26.909 h 19.145 v -3.11 H 4.133 v -9.26 H 16.937 V 11.431 H 4.133 L 4.133,0 Z"
             style="fill:#000000;stroke:#ff2400;stroke-width:0.028;stroke-linecap:round;stroke-linejoin:round;stroke-miterlimit:10;stroke-dasharray:none;stroke-opacity:1;fill-opacity:1"
             id="path324"
             inkscape:connector-curvature="0" /></g><g
           id="g326"
           transform="translate(508.3047,579.2158)"
           style="stroke:#ff2400;stroke-opacity:1;fill:#000000;fill-opacity:1"><path
             d="m 0,0 v 26.901 h 18.18 v -3.11 H 4.133 v -8.152 h 11.91 V 12.538 H 4.133 V 3.102 H 19.145 V 0 H 0"
             style="fill:#000000;stroke:#ff2400;stroke-width:0.028;stroke-linecap:round;stroke-linejoin:round;stroke-miterlimit:10;stroke-dasharray:none;stroke-opacity:1;fill-opacity:1"
             id="path328"
             inkscape:connector-curvature="0" /></g><g
           id="g330"
           transform="translate(512.9473,680.3413)"
           style="stroke:#ff2400;stroke-opacity:1;fill:#000000;fill-opacity:1"><path
             d="m 0,0 -2.4,-2.774 c 0,0 1.949,-1.753 4.396,-2.624 h 6.483 c 2.83,1.274 4.931,3.828 4.931,3.828 2.104,2.547 3.158,5.975 3.158,10.282 0,0 0,3.49 -0.666,6.342 l -1.382,2.337 -2.932,-3.516 c 0.4,-1.468 0.598,-3.19 0.598,-5.163 0,0 0,-3.521 -0.627,-6.237 C 10.295,0.569 10.295,0.569 9.041,-1.342 7.248,-2.293 4.934,-2.293 4.934,-2.293 2.836,-2.293 1.227,-1.559 0,0 Z"
             style="fill:#000000;stroke:#ff2400;stroke-width:0.028;stroke-linecap:round;stroke-linejoin:round;stroke-miterlimit:10;stroke-dasharray:none;stroke-opacity:1;fill-opacity:1"
             id="path332"
             inkscape:connector-curvature="0" /></g><g
           id="g334"
           transform="translate(508.2871,680.3638)"
           style="stroke:#ff2400;stroke-opacity:1;fill:#000000;fill-opacity:1"><path
             d="m 0,0 2.949,3.512 c 0,0 -0.396,1.471 -0.592,3.197 v 5.489 c 0.622,2.712 1.873,4.615 1.873,4.615 1.254,1.911 3.04,2.861 5.364,2.861 0,0 2.094,0 3.703,-0.713 l 1.234,-1.566 2.35,2.794 c -1.947,1.753 -4.35,2.593 -7.287,2.593 0,0 -3.557,0 -6.377,-1.273 C 1.107,18.952 1.107,18.952 -0.996,16.403 -2.043,12.984 -2.043,8.689 -2.043,8.689 -2.043,5.225 -1.365,2.325 0,0 Z"
             style="fill:#000000;stroke:#ff2400;stroke-width:0.028;stroke-linecap:round;stroke-linejoin:round;stroke-miterlimit:10;stroke-dasharray:none;stroke-opacity:1;fill-opacity:1"
             id="path336"
             inkscape:connector-curvature="0" /></g><g
           id="g338"
           transform="translate(508.0488,771.9287)"
           style="stroke:#ff2400;stroke-opacity:1;fill:#000000;fill-opacity:1"><path
             d="M 0,0 V 26.987 H 3.895 L 16.242,7.422 h 0.043 v 19.565 h 3.377 V 0 H 15.844 L 3.42,19.716 H 3.352 V 0 H 0"
             style="fill:#000000;stroke:#ff2400;stroke-width:0.028;stroke-linecap:round;stroke-linejoin:round;stroke-miterlimit:10;stroke-dasharray:none;stroke-opacity:1;fill-opacity:1"
             id="path340"
             inkscape:connector-curvature="0" /></g><g
           id="g342"
           transform="translate(508.3047,820.1606)"
           style="stroke:#ff2400;stroke-opacity:1;fill:#000000;fill-opacity:1"><path
             d="M 0,0 V 26.903 H 19.145 V 23.798 H 4.133 v -9.26 H 16.937 V 11.43 H 4.133 L 4.133,0 Z"
             style="fill:#000000;stroke:#ff2400;stroke-width:0.028;stroke-linecap:round;stroke-linejoin:round;stroke-miterlimit:10;stroke-dasharray:none;stroke-opacity:1;fill-opacity:1"
             id="path344"
             inkscape:connector-curvature="0" /></g><g
           id="g346"
           transform="translate(556.3379,413.6865)"
           style="stroke:#ff2400;stroke-opacity:1;fill:#000000;fill-opacity:1"><path
             d="m 0,0 h 4.13 v -16.333 l 0.086,-1.992 0.249,-1.694 0.428,-1.401 0.586,-1.105 0.785,-0.841 0.987,-0.6 1.201,-0.357 1.402,-0.122 1.48,0.122 1.261,0.357 1.039,0.6 0.813,0.841 0.618,1.108 0.437,1.422 0.264,1.732 0.084,2.035 V 0 h 3.608 v -15.619 l -0.071,-2.353 -0.226,-1.994 -0.378,-1.632 -0.517,-1.28 -0.689,-1.1 -0.787,-0.943 -0.891,-0.806 -0.991,-0.654 -1.099,-0.516 -1.202,-0.363 -1.303,-0.221 -1.407,-0.072 -2.362,0.175 -2.034,0.521 -1.708,0.865 -1.377,1.211 -1.058,1.568 -0.753,1.944 L 0.149,-18.96 0,-16.271 V 0"
             style="fill:#000000;stroke:#ff2400;stroke-width:0.028;stroke-linecap:round;stroke-linejoin:round;stroke-miterlimit:10;stroke-dasharray:none;stroke-opacity:1;fill-opacity:1"
             id="path348"
             inkscape:connector-curvature="0" /></g><g
           id="g350"
           transform="translate(556.2354,434.6035)"
           style="stroke:#ff2400;stroke-opacity:1;fill:#000000;fill-opacity:1"><path
             d="M 0,0 V 26.992 H 3.896 L 16.246,7.425 h 0.042 v 19.567 h 3.377 V 0 H 15.85 L 3.421,19.721 H 3.355 V 0 H 0"
             style="fill:#000000;stroke:#ff2400;stroke-width:0.028;stroke-linecap:round;stroke-linejoin:round;stroke-miterlimit:10;stroke-dasharray:none;stroke-opacity:1;fill-opacity:1"
             id="path352"
             inkscape:connector-curvature="0" /></g><g
           id="g354"
           transform="translate(556.7549,482.835)"
           style="stroke:#ff2400;stroke-opacity:1;fill:#000000;fill-opacity:1"><path
             d="m 0,0 v 3.109 h 7.235 v 20.69 H 0 v 3.107 H 18.621 V 23.799 H 11.385 V 3.109 h 7.236 V 0 H 0"
             style="fill:#000000;stroke:#ff2400;stroke-width:0.028;stroke-linecap:round;stroke-linejoin:round;stroke-miterlimit:10;stroke-dasharray:none;stroke-opacity:1;fill-opacity:1"
             id="path356"
             inkscape:connector-curvature="0" /></g><g
           id="g358"
           transform="translate(556.3379,558.5801)"
           style="stroke:#ff2400;stroke-opacity:1;fill:#000000;fill-opacity:1"><path
             d="m 0,0 h 4.13 v -16.339 l 0.086,-1.99 0.249,-1.693 0.428,-1.405 0.586,-1.104 0.785,-0.84 0.987,-0.595 1.201,-0.363 1.402,-0.119 1.48,0.119 1.261,0.363 1.039,0.595 0.813,0.84 0.618,1.11 0.437,1.421 0.264,1.731 0.084,2.036 V 0 h 3.608 v -15.623 l -0.071,-2.355 -0.226,-1.992 -0.378,-1.634 -0.517,-1.279 -0.689,-1.089 -0.787,-0.955 -0.891,-0.802 -0.991,-0.66 -1.099,-0.508 -1.202,-0.37 -1.303,-0.218 -1.407,-0.074 -2.362,0.178 -2.034,0.518 -1.708,0.865 -1.377,1.21 -1.058,1.571 -0.753,1.945 -0.456,2.306 L 0,-16.276 V 0"
             style="fill:#000000;stroke:#ff2400;stroke-width:0.028;stroke-linecap:round;stroke-linejoin:round;stroke-miterlimit:10;stroke-dasharray:none;stroke-opacity:1;fill-opacity:1"
             id="path360"
             inkscape:connector-curvature="0" /></g><path
           d="m 559.926,565.554 h 3.625 v -3.629 h -3.625 z"
           style="fill:#000000;stroke:#ff2400;stroke-width:0.028;stroke-linecap:round;stroke-linejoin:round;stroke-miterlimit:10;stroke-dasharray:none;stroke-opacity:1;fill-opacity:1"
           id="path362"
           inkscape:connector-curvature="0" /><path
           d="m 570.255,565.554 h 3.628 v -3.629 h -3.628 z"
           style="fill:#000000;stroke:#ff2400;stroke-width:0.028;stroke-linecap:round;stroke-linejoin:round;stroke-miterlimit:10;stroke-dasharray:none;stroke-opacity:1;fill-opacity:1"
           id="path364"
           inkscape:connector-curvature="0" /><g
           id="g366"
           transform="translate(556.7549,627.4048)"
           style="stroke:#ff2400;stroke-opacity:1;fill:#000000;fill-opacity:1"><path
             d="M 0,0 V 26.901 H 4.134 V 3.104 H 18.621 L 18.621,0 H 0"
             style="fill:#000000;stroke:#ff2400;stroke-width:0.028;stroke-linecap:round;stroke-linejoin:round;stroke-miterlimit:10;stroke-dasharray:none;stroke-opacity:1;fill-opacity:1"
             id="path368"
             inkscape:connector-curvature="0" /></g><g
           id="g370"
           transform="translate(563.9902,723.7817)"
           style="stroke:#ff2400;stroke-opacity:1;fill:#000000;fill-opacity:1"><path
             d="m 0,0 v 23.798 h -10.336 v 3.105 H 14.49 V 23.798 H 4.149 L 4.149,0 H 0"
             style="fill:#000000;stroke:#ff2400;stroke-width:0.028;stroke-linecap:round;stroke-linejoin:round;stroke-miterlimit:10;stroke-dasharray:none;stroke-opacity:1;fill-opacity:1"
             id="path372"
             inkscape:connector-curvature="0" /></g><g
           id="g374"
           transform="translate(555.2051,771.9707)"
           style="stroke:#ff2400;stroke-opacity:1;fill:#000000;fill-opacity:1"><path
             d="M 0,0 V 3.106 L 16.886,23.798 H 1.03 v 3.105 H 21.555 V 23.798 L 4.696,3.106 H 21.718 V 0 Z"
             style="fill:#000000;stroke:#ff2400;stroke-width:0.028;stroke-linecap:round;stroke-linejoin:round;stroke-miterlimit:10;stroke-dasharray:none;stroke-opacity:1;fill-opacity:1"
             id="path376"
             inkscape:connector-curvature="0" /></g><g
           id="g378"
           transform="translate(556.3379,847.7163)"
           style="stroke:#ff2400;stroke-opacity:1;fill:#000000;fill-opacity:1"><path
             d="m 0,0 h 4.13 v -16.334 l 0.086,-1.992 0.249,-1.695 0.428,-1.401 0.586,-1.106 0.785,-0.842 0.987,-0.599 1.201,-0.359 1.402,-0.119 1.48,0.119 1.261,0.359 1.039,0.599 0.813,0.842 0.618,1.111 0.437,1.421 0.264,1.727 0.084,2.036 V 0 h 3.608 v -15.623 l -0.071,-2.35 -0.226,-1.994 -0.378,-1.636 -0.517,-1.277 -0.689,-1.094 -0.787,-0.951 -0.891,-0.802 -0.991,-0.658 -1.099,-0.511 -1.202,-0.367 -1.303,-0.22 -1.407,-0.073 -2.362,0.174 -2.034,0.522 -1.708,0.865 -1.377,1.21 -1.058,1.569 -0.753,1.943 -0.456,2.312 L 0,-16.276 V 0"
             style="fill:#000000;stroke:#ff2400;stroke-width:0.028;stroke-linecap:round;stroke-linejoin:round;stroke-miterlimit:10;stroke-dasharray:none;stroke-opacity:1;fill-opacity:1"
             id="path380"
             inkscape:connector-curvature="0" /></g><path
           d="m 559.926,854.692 h 3.625 v -3.626 h -3.625 z"
           style="fill:#000000;stroke:#ff2400;stroke-width:0.028;stroke-linecap:round;stroke-linejoin:round;stroke-miterlimit:10;stroke-dasharray:none;stroke-opacity:1;fill-opacity:1"
           id="path382"
           inkscape:connector-curvature="0" /><path
           d="m 570.255,854.692 h 3.628 v -3.626 h -3.628 z"
           style="fill:#000000;stroke:#ff2400;stroke-width:0.028;stroke-linecap:round;stroke-linejoin:round;stroke-miterlimit:10;stroke-dasharray:none;stroke-opacity:1;fill-opacity:1"
           id="path384"
           inkscape:connector-curvature="0" /><g
           id="g386"
           transform="translate(604.4189,386.458)"
           style="stroke:#ff2400;stroke-opacity:1;fill:#000000;fill-opacity:1"><path
             d="M 0,0 V 26.904 H 4.136 V 15.146 h 11.385 v 11.758 h 4.154 V 0 H 15.521 V 12.037 H 4.136 L 4.136,0 H 0"
             style="fill:#000000;stroke:#ff2400;stroke-width:0.028;stroke-linecap:round;stroke-linejoin:round;stroke-miterlimit:10;stroke-dasharray:none;stroke-opacity:1;fill-opacity:1"
             id="path388"
             inkscape:connector-curvature="0" /></g><g
           id="g390"
           transform="translate(604.6826,482.835)"
           style="stroke:#ff2400;stroke-opacity:1;fill:#000000;fill-opacity:1"><path
             d="M 0,0 V 26.906 H 18.177 V 23.799 H 4.134 V 15.645 H 16.038 V 12.537 H 4.134 V 3.109 H 19.147 V 0 H 0"
             style="fill:#000000;stroke:#ff2400;stroke-width:0.028;stroke-linecap:round;stroke-linejoin:round;stroke-miterlimit:10;stroke-dasharray:none;stroke-opacity:1;fill-opacity:1"
             id="path392"
             inkscape:connector-curvature="0" /></g><g
           id="g394"
           transform="translate(604.4189,530.9814)"
           style="stroke:#ff2400;stroke-opacity:1;fill:#000000;fill-opacity:1"><path
             d="M 0,0 V 26.991 H 3.901 L 16.253,7.421 h 0.043 v 19.57 h 3.379 V 0 H 15.856 L 3.427,19.72 H 3.362 V 0 H 0"
             style="fill:#000000;stroke:#ff2400;stroke-width:0.028;stroke-linecap:round;stroke-linejoin:round;stroke-miterlimit:10;stroke-dasharray:none;stroke-opacity:1;fill-opacity:1"
             id="path396"
             inkscape:connector-curvature="0" /></g><g
           id="g398"
           transform="translate(604.6826,579.2158)"
           style="stroke:#ff2400;stroke-opacity:1;fill:#000000;fill-opacity:1"><path
             d="m 0,0 v 26.901 h 18.177 v -3.11 H 4.134 V 15.639 H 16.038 V 12.538 H 4.134 V 3.102 H 19.147 V 0 H 0"
             style="fill:#000000;stroke:#ff2400;stroke-width:0.028;stroke-linecap:round;stroke-linejoin:round;stroke-miterlimit:10;stroke-dasharray:none;stroke-opacity:1;fill-opacity:1"
             id="path400"
             inkscape:connector-curvature="0" /></g><g
           id="g402"
           transform="translate(604.6826,627.4048)"
           style="stroke:#ff2400;stroke-opacity:1;fill:#000000;fill-opacity:1"><path
             d="M 0,0 V 26.901 H 19.147 V 23.796 H 4.134 V 14.534 H 16.94 V 11.428 H 4.134 L 4.134,0 Z"
             style="fill:#000000;stroke:#ff2400;stroke-width:0.028;stroke-linecap:round;stroke-linejoin:round;stroke-miterlimit:10;stroke-dasharray:none;stroke-opacity:1;fill-opacity:1"
             id="path404"
             inkscape:connector-curvature="0" /></g><g
           id="g406"
           transform="translate(606.5684,676.2783)"
           style="stroke:#ff2400;stroke-opacity:1;fill:#000000;fill-opacity:1"><path
             d="M 0,0 V 3.497 L 1.377,3.041 3.953,2.331 5.93,2.096 l 1.365,0.093 1.146,0.288 0.928,0.479 0.707,0.669 0.514,0.911 0.367,1.204 0.219,1.501 0.076,1.795 V 23.437 H 1.943 v 3.105 H 15.387 V 11.232 L 15.262,7.669 14.902,5.149 14.205,3.284 13.055,1.651 11.73,0.486 10.156,-0.344 8.313,-0.846 6.223,-1.01 3.455,-0.759 0,0"
             style="fill:#000000;stroke:#ff2400;stroke-width:0.028;stroke-linecap:round;stroke-linejoin:round;stroke-miterlimit:10;stroke-dasharray:none;stroke-opacity:1;fill-opacity:1"
             id="path408"
             inkscape:connector-curvature="0" /></g><g
           id="g410"
           transform="translate(604.6826,723.7817)"
           style="stroke:#ff2400;stroke-opacity:1;fill:#000000;fill-opacity:1"><path
             d="M 0,0 V 26.903 H 18.177 V 23.798 H 4.134 V 15.645 H 16.038 V 12.539 H 4.134 V 3.109 H 19.147 V 0 H 0"
             style="fill:#000000;stroke:#ff2400;stroke-width:0.028;stroke-linecap:round;stroke-linejoin:round;stroke-miterlimit:10;stroke-dasharray:none;stroke-opacity:1;fill-opacity:1"
             id="path412"
             inkscape:connector-curvature="0" /></g><g
           id="g414"
           transform="translate(604.9443,771.9707)"
           style="stroke:#ff2400;stroke-opacity:1;fill:#000000;fill-opacity:1"><path
             d="M 0,0 V 3.106 H 7.237 V 23.798 H 0 v 3.105 H 18.624 V 23.798 H 11.388 V 3.106 h 7.236 V 0 H 0"
             style="fill:#000000;stroke:#ff2400;stroke-width:0.028;stroke-linecap:round;stroke-linejoin:round;stroke-miterlimit:10;stroke-dasharray:none;stroke-opacity:1;fill-opacity:1"
             id="path416"
             inkscape:connector-curvature="0" /></g><g
           id="g418"
           transform="translate(604.4189,820.1172)"
           style="stroke:#ff2400;stroke-opacity:1;fill:#000000;fill-opacity:1"><path
             d="M 0,0 V 26.988 H 3.901 L 16.253,7.425 h 0.043 v 19.563 h 3.379 V 0 H 15.856 L 3.427,19.72 H 3.362 V 0 H 0"
             style="fill:#000000;stroke:#ff2400;stroke-width:0.028;stroke-linecap:round;stroke-linejoin:round;stroke-miterlimit:10;stroke-dasharray:none;stroke-opacity:1;fill-opacity:1"
             id="path420"
             inkscape:connector-curvature="0" /></g><g
           id="g422"
           transform="translate(670.1982,460.9219)"
           style="stroke:#ff2400;stroke-opacity:1;fill:#000000;fill-opacity:1"><path
             d="m 0,0 v -3.585 l -2.215,0.769 -2.084,0.545 -1.963,0.336 -1.838,0.111 -2.447,-0.239 -1.75,-0.708 -1.053,-1.18 -0.347,-1.645 0.261,-1.383 0.786,-1.08 1.494,-0.95 2.39,-0.97 2.635,-0.92 2.516,-0.869 1.369,-0.559 1.189,-0.645 1.004,-0.732 0.824,-0.827 0.641,-0.916 0.455,-1 0.276,-1.09 0.091,-1.182 -0.181,-1.775 -0.561,-1.591 -0.933,-1.397 -1.305,-1.206 -1.619,-0.982 -1.879,-0.694 -2.121,-0.423 -2.383,-0.139 -1.865,0.09 -2.123,0.281 -2.377,0.463 -2.635,0.655 v 4.097 l 2.635,-1.087 2.396,-0.774 2.162,-0.463 1.928,-0.151 1.459,0.073 1.297,0.224 1.144,0.379 0.987,0.525 0.801,0.656 0.574,0.758 0.338,0.858 0.113,0.969 -0.272,1.392 -0.81,1.06 -1.65,0.986 -2.805,1.158 -2.76,1.003 -1.908,0.773 -1.598,0.778 -1.273,0.793 -0.965,0.797 -0.701,0.88 -0.498,1.006 -0.299,1.138 -0.106,1.276 0.153,1.711 0.465,1.505 0.769,1.305 1.078,1.104 1.358,0.865 1.609,0.622 1.859,0.378 L -8.16,1.281 -6.293,1.2 -4.307,0.956 -2.209,0.561 0,0"
             style="fill:#000000;stroke:#ff2400;stroke-width:0.028;stroke-linecap:round;stroke-linejoin:round;stroke-miterlimit:10;stroke-dasharray:none;stroke-opacity:1;fill-opacity:1"
             id="path424"
             inkscape:connector-curvature="0" /></g><g
           id="g426"
           transform="translate(652.8721,531.0215)"
           style="stroke:#ff2400;stroke-opacity:1;fill:#000000;fill-opacity:1"><path
             d="m 0,0 v 26.909 h 19.145 v -3.11 H 4.133 v -9.26 H 16.939 V 11.431 H 4.133 L 4.133,0 Z"
             style="fill:#000000;stroke:#ff2400;stroke-width:0.028;stroke-linecap:round;stroke-linejoin:round;stroke-miterlimit:10;stroke-dasharray:none;stroke-opacity:1;fill-opacity:1"
             id="path428"
             inkscape:connector-curvature="0" /></g><g
           id="g430"
           transform="translate(652.6084,579.1738)"
           style="stroke:#ff2400;stroke-opacity:1;fill:#000000;fill-opacity:1"><path
             d="M 0,0 V 26.985 H 3.902 L 16.246,7.416 h 0.041 v 19.569 h 3.385 V 0 H 15.859 L 3.428,19.711 H 3.359 L 3.359,0 H 0"
             style="fill:#000000;stroke:#ff2400;stroke-width:0.028;stroke-linecap:round;stroke-linejoin:round;stroke-miterlimit:10;stroke-dasharray:none;stroke-opacity:1;fill-opacity:1"
             id="path432"
             inkscape:connector-curvature="0" /></g><g
           id="g434"
           transform="translate(656.8486,644.2583)"
           style="stroke:#ff2400;stroke-opacity:1;fill:#000000;fill-opacity:1"><path
             d="M 0,0 V 6.942 H 4.102 L 5.816,6.875 7.264,6.678 8.445,6.343 9.373,5.876 10.061,5.254 10.555,4.457 10.854,3.48 10.953,2.335 10.822,0.958 10.428,-0.233 9.775,-1.244 8.855,-2.069 7.68,-2.709 6.234,-3.166 4.535,-3.444 2.564,-3.535 h -6.705 v -13.319 h 4.135 v 10.213 h 3.014 l 2.724,0.152 2.422,0.451 2.104,0.753 1.797,1.056 1.433,1.323 1.024,1.544 0.615,1.775 0.207,2.008 -0.254,2.306 -0.76,1.905 -1.271,1.493 -1.781,1.086 -1.164,0.364 -1.5,0.262 -1.833,0.16 -2.169,0.051 H -4.141 L -4.141,0 H 0"
             style="fill:#000000;stroke:#ff2400;stroke-width:0.028;stroke-linecap:round;stroke-linejoin:round;stroke-miterlimit:10;stroke-dasharray:none;stroke-opacity:1;fill-opacity:1"
             id="path436"
             inkscape:connector-curvature="0" /></g><g
           id="g438"
           transform="translate(651.4873,675.5952)"
           style="stroke:#ff2400;stroke-opacity:1;fill:#000000;fill-opacity:1"><path
             d="m 0,0 v 26.898 h 4.971 l 5.91,-16.568 h 0.045 l 5.81,16.568 h 5.182 V 0 H 18.539 V 23.085 H 18.494 L 12.43,5.681 H 8.957 L 2.916,22.599 H 2.875 L 2.875,0 Z"
             style="fill:#000000;stroke:#ff2400;stroke-width:0.028;stroke-linecap:round;stroke-linejoin:round;stroke-miterlimit:10;stroke-dasharray:none;stroke-opacity:1;fill-opacity:1"
             id="path440"
             inkscape:connector-curvature="0" /></g><g
           id="g442"
           transform="translate(653.1338,723.7817)"
           style="stroke:#ff2400;stroke-opacity:1;fill:#000000;fill-opacity:1"><path
             d="M 0,0 V 26.903 H 4.127 V 3.109 H 18.623 V 0 H 0"
             style="fill:#000000;stroke:#ff2400;stroke-width:0.028;stroke-linecap:round;stroke-linejoin:round;stroke-miterlimit:10;stroke-dasharray:none;stroke-opacity:1;fill-opacity:1"
             id="path444"
             inkscape:connector-curvature="0" /></g><g
           id="g446"
           transform="translate(673.1357,798.3081)"
           style="stroke:#ff2400;stroke-opacity:1;fill:#000000;fill-opacity:1"><path
             d="m 0,0 v -3.801 l -2.045,0.836 -1.967,0.598 -1.91,0.359 -1.832,0.119 -2.002,-0.191 -1.808,-0.578 -1.62,-0.957 -1.439,-1.336 -1.182,-1.634 -0.845,-1.845 -0.5,-2.054 -0.17,-2.26 0.197,-2.278 0.568,-2.061 0.95,-1.846 1.328,-1.629 1.629,-1.336 1.834,-0.95 2.041,-0.575 2.255,-0.191 2.725,0.254 v 7.103 h -5.055 v 3.106 H 0.34 v -12.494 l -2.082,-0.588 -2.028,-0.419 -1.968,-0.254 -1.914,-0.085 -1.522,0.061 -1.453,0.184 -1.377,0.301 -1.31,0.426 -1.231,0.546 -1.168,0.663 -1.08,0.789 -1.021,0.911 -0.913,1.003 -0.793,1.08 -0.667,1.15 -0.559,1.224 -0.422,1.299 -0.309,1.369 -0.179,1.441 -0.065,1.515 0.065,1.551 0.179,1.477 0.309,1.4 0.422,1.326 0.551,1.25 0.67,1.172 0.793,1.101 0.912,1.02 1.013,0.923 1.084,0.803 1.164,0.677 1.239,0.554 1.308,0.434 1.385,0.308 1.465,0.184 1.535,0.061 L -5.816,1.141 -3.939,0.912 -2,0.532 0,0"
             style="fill:#000000;stroke:#ff2400;stroke-width:0.028;stroke-linecap:round;stroke-linejoin:round;stroke-miterlimit:10;stroke-dasharray:none;stroke-opacity:1;fill-opacity:1"
             id="path448"
             inkscape:connector-curvature="0" /></g><g
           id="g450"
           transform="translate(652.8721,820.1597)"
           style="stroke:#ff2400;stroke-opacity:1;fill:#000000;fill-opacity:1"><path
             d="M 0,0 V 26.903 H 19.145 V 23.798 H 4.133 v -9.26 H 16.939 V 11.43 H 4.133 L 4.133,0 Z"
             style="fill:#000000;stroke:#ff2400;stroke-width:0.028;stroke-linecap:round;stroke-linejoin:round;stroke-miterlimit:10;stroke-dasharray:none;stroke-opacity:1;fill-opacity:1"
             id="path452"
             inkscape:connector-curvature="0" /></g><g
           id="g454"
           transform="translate(512.9473,632.8022)"
           style="stroke:#ff2400;stroke-opacity:1;fill:#000000;fill-opacity:1"><path
             d="m 0,0 -2.4,-2.773 c 0,0 1.949,-1.748 4.396,-2.624 h 6.483 c 2.83,1.274 4.931,3.828 4.931,3.828 2.104,2.548 3.158,5.977 3.158,10.286 0,0 0,3.487 -0.666,6.34 l -1.382,2.338 -2.932,-3.519 c 0.4,-1.468 0.598,-3.188 0.598,-5.159 0,0 0,-3.523 -0.627,-6.241 C 10.295,0.569 10.295,0.569 9.041,-1.342 7.248,-2.292 4.934,-2.292 4.934,-2.292 2.836,-2.292 1.227,-1.557 0,0 Z"
             style="fill:#000000;stroke:#ff2400;stroke-width:0.028;stroke-linecap:round;stroke-linejoin:round;stroke-miterlimit:10;stroke-dasharray:none;stroke-opacity:1;fill-opacity:1"
             id="path456"
             inkscape:connector-curvature="0" /></g><g
           id="g458"
           transform="translate(508.2871,632.8276)"
           style="stroke:#ff2400;stroke-opacity:1;fill:#000000;fill-opacity:1"><path
             d="m 0,0 2.949,3.51 c 0,0 -0.396,1.473 -0.592,3.201 v 5.485 c 0.622,2.712 1.873,4.617 1.873,4.617 1.254,1.912 3.04,2.864 5.364,2.864 0,0 2.094,0 3.703,-0.714 l 1.234,-1.569 2.35,2.796 c -1.947,1.753 -4.35,2.591 -7.287,2.591 0,0 -3.557,0 -6.377,-1.275 C 1.107,18.953 1.107,18.953 -0.996,16.404 -2.043,12.982 -2.043,8.691 -2.043,8.691 -2.043,5.224 -1.365,2.328 0,0 Z"
             style="fill:#000000;stroke:#ff2400;stroke-width:0.028;stroke-linecap:round;stroke-linejoin:round;stroke-miterlimit:10;stroke-dasharray:none;stroke-opacity:1;fill-opacity:1"
             id="path460"
             inkscape:connector-curvature="0" /></g><path
           d="m 510.895,661.972 h 3.625 v -3.627 h -3.625 z"
           style="fill:#000000;stroke:#ff2400;stroke-width:0.028;stroke-linecap:round;stroke-linejoin:round;stroke-miterlimit:10;stroke-dasharray:none;stroke-opacity:1;fill-opacity:1"
           id="path462"
           inkscape:connector-curvature="0" /><path
           d="m 521.225,661.972 h 3.629 v -3.627 h -3.629 z"
           style="fill:#000000;stroke:#ff2400;stroke-width:0.028;stroke-linecap:round;stroke-linejoin:round;stroke-miterlimit:10;stroke-dasharray:none;stroke-opacity:1;fill-opacity:1"
           id="path464"
           inkscape:connector-curvature="0" /><g
           id="g466"
           transform="translate(360.6445,627.4048)"
           style="stroke:#ff2400;stroke-opacity:1;fill:#000000;fill-opacity:1"><path
             d="M 0,0 10.52,13.657 0.902,26.901 H 5.79 l 7.255,-9.984 7.716,9.984 h 4.023 L 14.988,14.241 25.334,0 H 20.42 L 12.479,10.95 4.023,0 H 0"
             style="fill:#000000;stroke:#ff2400;stroke-width:0.028;stroke-linecap:round;stroke-linejoin:round;stroke-miterlimit:10;stroke-dasharray:none;stroke-opacity:1;fill-opacity:1"
             id="path468"
             inkscape:connector-curvature="0" /></g><g
           id="g470"
           transform="translate(315.4155,634.0405)"
           style="stroke:#ff2400;stroke-opacity:1;fill:#000000;fill-opacity:1"><path
             d="M 0,0 H 4.131 L 4.126,17.16 h 1.919 l 2.135,-0.051 1.749,-0.146 1.371,-0.25 0.994,-0.348 0.713,-0.49 0.505,-0.68 0.307,-0.863 0.089,-1.051 -0.213,-1.27 -0.566,-1.029 -0.835,-0.81 L 11.275,9.556 10.154,9.118 9.021,8.831 7.025,8.63 H 6.778 V 6.055 H 7.094 L 8.435,5.93 9.904,5.592 11.313,5.104 12.494,4.521 13.598,3.689 14.385,2.724 14.859,1.626 15.02,0.392 14.92,-0.641 14.641,-1.5 14.152,-2.187 13.482,-2.692 12.556,-3.059 11.3,-3.32 9.74,-3.476 7.85,-3.532 H 0 L -0.012,-6.636 H 8.1 l 3.492,0.097 2.379,0.29 1.725,0.592 1.523,0.99 0.964,0.991 0.687,1.161 0.415,1.333 0.135,1.509 -0.11,1.333 -0.353,1.203 -0.586,1.08 -0.816,0.951 -1.049,0.826 -1.292,0.698 -1.513,0.572 -1.755,0.446 1.376,0.429 1.209,0.555 1.061,0.676 0.889,0.802 0.706,0.909 0.512,0.987 0.307,1.07 0.098,1.155 -0.147,1.461 -0.439,1.272 -0.745,1.073 -1.023,0.878 -1.328,0.687 -1.623,0.487 -1.92,0.291 -2.213,0.098 H -0.012 L 0,12.146 V 0"
             style="fill:#000000;stroke:#ff2400;stroke-width:0.028;stroke-linecap:round;stroke-linejoin:round;stroke-miterlimit:10;stroke-dasharray:none;stroke-opacity:1;fill-opacity:1"
             id="path472"
             inkscape:connector-curvature="0" /></g><g
           id="g474"
           transform="translate(556.3584,585.8457)"
           style="stroke:#ff2400;stroke-opacity:1;fill:#000000;fill-opacity:1"><path
             d="M 0,0 H 4.132 L 4.128,17.161 h 1.925 l 2.128,-0.05 1.75,-0.147 1.376,-0.251 0.996,-0.346 0.708,-0.492 0.51,-0.676 0.297,-0.867 0.096,-1.047 -0.219,-1.267 -0.563,-1.033 -0.835,-0.81 L 11.274,9.557 10.163,9.121 9.021,8.831 7.035,8.634 H 6.779 V 6.053 H 7.098 L 8.443,5.936 9.905,5.59 11.321,5.101 12.502,4.523 13.607,3.694 14.392,2.725 14.867,1.629 15.026,0.398 14.927,-0.641 14.641,-1.499 14.16,-2.182 13.487,-2.687 12.558,-3.058 11.307,-3.322 9.74,-3.474 7.855,-3.528 H 0 L -0.014,-6.63 h 8.121 l 3.488,0.088 2.376,0.295 1.73,0.591 1.519,0.987 0.963,0.995 0.688,1.157 0.414,1.34 0.142,1.504 -0.115,1.332 -0.355,1.207 -0.577,1.078 -0.823,0.951 -1.052,0.823 -1.282,0.702 -1.522,0.572 -1.756,0.446 1.38,0.424 1.213,0.558 1.056,0.676 0.887,0.805 0.714,0.908 0.507,0.988 0.305,1.075 0.101,1.149 -0.144,1.462 -0.446,1.268 -0.738,1.072 -1.03,0.885 -1.33,0.683 -1.619,0.486 -1.92,0.294 -2.212,0.1 H -0.014 L 0,12.148 V 0"
             style="fill:#000000;stroke:#ff2400;stroke-width:0.028;stroke-linecap:round;stroke-linejoin:round;stroke-miterlimit:10;stroke-dasharray:none;stroke-opacity:1;fill-opacity:1"
             id="path476"
             inkscape:connector-curvature="0" /></g><g
           id="g478"
           transform="translate(170.8491,393.0957)"
           style="stroke:#ff2400;stroke-opacity:1;fill:#000000;fill-opacity:1"><path
             d="m 0,0 h 4.132 v 17.16 h 1.914 l 2.133,-0.051 1.751,-0.151 1.37,-0.244 1,-0.349 0.708,-0.494 0.511,-0.676 0.304,-0.866 0.091,-1.047 L 13.702,12.007 13.129,10.978 12.294,10.165 11.275,9.557 10.154,9.119 9.02,8.832 7.032,8.631 H 6.777 V 6.053 H 7.095 L 8.435,5.923 9.904,5.59 11.318,5.102 12.494,4.522 13.605,3.686 14.39,2.725 14.865,1.621 15.023,0.391 14.927,-0.641 14.64,-1.505 14.152,-2.19 13.481,-2.695 12.557,-3.063 11.306,-3.323 9.738,-3.481 7.85,-3.53 H 0 l -0.014,-3.108 h 8.119 l 3.488,0.098 2.377,0.29 1.73,0.587 1.525,0.993 0.963,0.988 0.682,1.166 0.415,1.332 0.142,1.513 -0.117,1.328 -0.354,1.2 -0.584,1.08 -0.817,0.959 -1.049,0.823 -1.286,0.698 -1.518,0.572 -1.757,0.447 1.379,0.426 1.212,0.559 1.056,0.673 0.889,0.8 0.713,0.915 0.506,0.986 0.306,1.066 0.103,1.158 -0.152,1.463 -0.439,1.268 -0.739,1.073 -1.028,0.878 -1.33,0.684 -1.621,0.492 -1.92,0.293 -2.213,0.097 H -0.014 L 0,12.146 V 0"
             style="fill:#000000;stroke:#ff2400;stroke-width:0.028;stroke-linecap:round;stroke-linejoin:round;stroke-miterlimit:10;stroke-dasharray:none;stroke-opacity:1;fill-opacity:1"
             id="path480"
             inkscape:connector-curvature="0" /></g><g
           id="g482"
           transform="translate(170.9858,338.2666)"
           style="stroke:#ff2400;stroke-opacity:1;fill:#000000;fill-opacity:1"><path
             d="m 0,0 v 26.909 h 18.178 v -3.11 H 4.133 V 15.647 H 16.037 V 12.538 H 4.133 V 3.11 H 19.141 V 0 L 0,0"
             style="fill:#000000;stroke:#ff2400;stroke-width:0.028;stroke-linecap:round;stroke-linejoin:round;stroke-miterlimit:10;stroke-dasharray:none;stroke-opacity:1;fill-opacity:1"
             id="path484"
             inkscape:connector-curvature="0" /></g><g
           id="g486"
           transform="translate(226.5562,338.2695)"
           style="stroke:#ff2400;stroke-opacity:1;fill:#000000;fill-opacity:1"><path
             d="m 0,0 -10.44,26.904 h 4.357 L 2.519,5.52 11.294,26.904 h 3.523 L 4.152,0 Z"
             style="fill:#000000;stroke:#ff2400;stroke-width:0.028;stroke-linecap:round;stroke-linejoin:round;stroke-miterlimit:10;stroke-dasharray:none;stroke-opacity:1;fill-opacity:1"
             id="path488"
             inkscape:connector-curvature="0" /></g><g
           id="g490"
           transform="translate(267.3623,338.2695)"
           style="stroke:#ff2400;stroke-opacity:1;fill:#000000;fill-opacity:1"><path
             d="M 0,0 V 26.904 H 19.143 V 23.798 H 4.131 v -9.259 h 12.81 v -3.11 H 4.131 L 4.131,0 Z"
             style="fill:#000000;stroke:#ff2400;stroke-width:0.028;stroke-linecap:round;stroke-linejoin:round;stroke-miterlimit:10;stroke-dasharray:none;stroke-opacity:1;fill-opacity:1"
             id="path492"
             inkscape:connector-curvature="0" /></g><g
           id="g494"
           transform="translate(312.4556,338.2705)"
           style="stroke:#ff2400;stroke-opacity:1;fill:#000000;fill-opacity:1"><path
             d="M 0,0 10.52,13.658 0.902,26.902 H 5.79 l 7.255,-9.984 7.716,9.984 h 4.023 L 14.988,14.242 25.334,0 H 20.42 L 12.479,10.951 4.023,0 H 0"
             style="fill:#000000;stroke:#ff2400;stroke-width:0.028;stroke-linecap:round;stroke-linejoin:round;stroke-miterlimit:10;stroke-dasharray:none;stroke-opacity:1;fill-opacity:1"
             id="path496"
             inkscape:connector-curvature="0" /></g><g
           id="g498"
           transform="translate(366.7695,362.0674)"
           style="stroke:#ff2400;stroke-opacity:1;fill:#000000;fill-opacity:1"><path
             d="M 0,0 V -5.913 H -4.123 L -4.141,3.106 H 3.387 L 5.559,3.057 7.367,2.913 8.82,2.668 9.91,2.332 l 1.707,-0.971 1.219,-1.265 0.732,-1.582 0.245,-1.893 -0.086,-1.348 -0.258,-1.226 -0.416,-1.112 -0.596,-1.001 -0.791,-0.921 -1.01,-0.888 -1.246,-0.853 -1.469,-0.825 9.284,-12.245 h -5.012 l -8.496,11.196 h -3.723 v -11.196 h -4.135 v 14.355 l 6.317,-0.033 1.576,0.086 1.41,0.276 1.233,0.463 1.058,0.641 0.854,0.797 0.609,0.926 0.371,1.055 L 9.41,-4.044 9.318,-2.978 9.045,-2.085 8.58,-1.38 7.941,-0.861 7.053,-0.483 5.852,-0.215 4.344,-0.057 2.529,0 H 0"
             style="fill:#000000;stroke:#ff2400;stroke-width:0.028;stroke-linecap:round;stroke-linejoin:round;stroke-miterlimit:10;stroke-dasharray:none;stroke-opacity:1;fill-opacity:1"
             id="path500"
             inkscape:connector-curvature="0" /></g><g
           id="g502"
           transform="translate(411.6646,338.2295)"
           style="stroke:#ff2400;stroke-opacity:1;fill:#000000;fill-opacity:1"><path
             d="M 0,0 V 26.984 H 3.902 L 16.246,7.416 h 0.041 v 19.568 h 3.384 V 0 H 15.859 L 3.428,19.711 H 3.359 L 3.359,0 H 0"
             style="fill:#000000;stroke:#ff2400;stroke-width:0.028;stroke-linecap:round;stroke-linejoin:round;stroke-miterlimit:10;stroke-dasharray:none;stroke-opacity:1;fill-opacity:1"
             id="path504"
             inkscape:connector-curvature="0" /></g><g
           id="g506"
           transform="translate(458.8271,338.2695)"
           style="stroke:#ff2400;stroke-opacity:1;fill:#000000;fill-opacity:1"><path
             d="M 0,0 V 3.107 L 16.885,23.798 H 1.035 v 3.105 H 21.554 V 23.798 L 4.693,3.107 H 21.725 V 0 Z"
             style="fill:#000000;stroke:#ff2400;stroke-width:0.028;stroke-linecap:round;stroke-linejoin:round;stroke-miterlimit:10;stroke-dasharray:none;stroke-opacity:1;fill-opacity:1"
             id="path508"
             inkscape:connector-curvature="0" /></g><g
           id="g510"
           transform="translate(525.6348,364.5439)"
           style="stroke:#ff2400;stroke-opacity:1;fill:#000000;fill-opacity:1"><path
             d="m 0,0 v -3.585 l -2.215,0.769 -2.084,0.545 -1.963,0.336 -1.838,0.111 -2.447,-0.239 -1.75,-0.708 -1.053,-1.18 -0.347,-1.645 0.261,-1.383 0.786,-1.08 1.494,-0.95 2.39,-0.97 2.635,-0.92 2.516,-0.869 1.369,-0.559 1.189,-0.645 1.004,-0.732 0.824,-0.827 0.641,-0.916 0.455,-1 0.276,-1.09 0.091,-1.182 -0.181,-1.775 -0.561,-1.591 -0.933,-1.397 -1.305,-1.206 -1.619,-0.982 -1.879,-0.694 -2.121,-0.423 -2.383,-0.139 -1.865,0.09 -2.123,0.281 -2.377,0.463 -2.635,0.655 v 4.097 l 2.635,-1.087 2.396,-0.774 2.162,-0.463 1.928,-0.151 1.459,0.073 1.297,0.224 1.144,0.379 0.987,0.525 0.801,0.656 0.574,0.758 0.338,0.858 0.113,0.969 -0.272,1.392 -0.81,1.06 -1.65,0.986 -2.805,1.158 -2.76,1.003 -1.908,0.773 -1.598,0.778 -1.273,0.793 -0.965,0.797 -0.701,0.88 -0.498,1.006 -0.299,1.138 -0.106,1.276 0.153,1.711 0.465,1.505 0.769,1.305 1.078,1.104 1.358,0.865 1.609,0.622 1.859,0.378 L -8.16,1.281 -6.293,1.2 -4.307,0.956 -2.209,0.561 0,0"
             style="fill:#000000;stroke:#ff2400;stroke-width:0.028;stroke-linecap:round;stroke-linejoin:round;stroke-miterlimit:10;stroke-dasharray:none;stroke-opacity:1;fill-opacity:1"
             id="path512"
             inkscape:connector-curvature="0" /></g><g
           id="g514"
           transform="translate(556.7559,338.2705)"
           style="stroke:#ff2400;stroke-opacity:1;fill:#000000;fill-opacity:1"><path
             d="M 0,0 V 26.902 H 4.127 V 3.104 H 18.621 V 0 H 0"
             style="fill:#000000;stroke:#ff2400;stroke-width:0.028;stroke-linecap:round;stroke-linejoin:round;stroke-miterlimit:10;stroke-dasharray:none;stroke-opacity:1;fill-opacity:1"
             id="path516"
             inkscape:connector-curvature="0" /></g><g
           id="g518"
           transform="translate(653.1348,338.2695)"
           style="stroke:#ff2400;stroke-opacity:1;fill:#000000;fill-opacity:1"><path
             d="m 0,0 v 3.109 h 7.238 v 20.69 H 0 v 3.105 h 18.621 v -3.105 h -7.24 V 3.109 h 7.24 V 0 H 0"
             style="fill:#000000;stroke:#ff2400;stroke-width:0.028;stroke-linecap:round;stroke-linejoin:round;stroke-miterlimit:10;stroke-dasharray:none;stroke-opacity:1;fill-opacity:1"
             id="path520"
             inkscape:connector-curvature="0" /></g><g
           id="g522"
           transform="translate(608.6602,355.124)"
           style="stroke:#ff2400;stroke-opacity:1;fill:#000000;fill-opacity:1"><path
             d="M 0,0 V 6.943 H 4.102 L 5.816,6.875 7.264,6.678 8.445,6.344 9.373,5.877 10.061,5.254 10.555,4.457 10.854,3.48 10.953,2.336 10.822,0.959 10.428,-0.232 9.775,-1.244 8.855,-2.068 7.68,-2.709 6.234,-3.166 4.535,-3.443 2.564,-3.535 h -6.705 v -13.319 h 4.135 v 10.213 h 3.014 l 2.724,0.153 2.422,0.451 2.104,0.752 1.797,1.056 1.433,1.323 1.024,1.545 0.615,1.775 0.207,2.008 -0.254,2.305 -0.76,1.906 -1.271,1.492 -1.781,1.086 -1.164,0.365 -1.5,0.262 -1.833,0.16 -2.169,0.051 H -4.141 L -4.141,0 H 0"
             style="fill:#000000;stroke:#ff2400;stroke-width:0.028;stroke-linecap:round;stroke-linejoin:round;stroke-miterlimit:10;stroke-dasharray:none;stroke-opacity:1;fill-opacity:1"
             id="path524"
             inkscape:connector-curvature="0" /></g></g></g></g></svg>